/* XPM */
static char *_e733fd940ed4da09d7be92d9c9efa95[] = {
/* columns rows colors chars-per-pixel */
"32 32 112 2 ",
"   c #47704C",
".  c #FD900B",
"X  c #FFDA5F",
"o  c #FD8E09",
"O  c #FFD853",
"+  c #FC8705",
"@  c #FD920D",
"#  c #FD900B",
"$  c #FD900B",
"%  c #FFDC5D",
"&  c #FFD659",
"*  c #FC8403",
"=  c #FFE065",
"-  c None",
";  c #FD930C",
":  c #FD9710",
">  c #FD9D14",
",  c #FDA91C",
"<  c #FDA016",
"1  c #FDA61A",
"2  c #FDA318",
"3  c #FD9A12",
"4  c #FEBE2E",
"5  c #FED350",
"6  c #FD950E",
"7  c #FEC63A",
"8  c #FC8906",
"9  c #FECA3D",
"0  c #FEBA29",
"q  c #FED654",
"w  c #FEC232",
"e  c #FED855",
"r  c #FC8806",
"t  c #FC8302",
"y  c #FC8302",
"u  c #FFE97E",
"i  c #FEDB5A",
"p  c #FFDD5F",
"a  c #FFE371",
"s  c #FFE169",
"d  c #FFE166",
"f  c #FFE573",
"g  c #FFEA82",
"h  c #FFE77A",
"j  c #FFE87B",
"k  c #FDA217",
"l  c #FEAB1C",
"z  c #FDAF1F",
"x  c #FD9E13",
"c  c #FDA71A",
"v  c #FD930D",
"b  c #FD960F",
"n  c #FED96B",
"m  c #FEDA67",
"M  c #FD9A11",
"N  c #FEDD67",
"B  c #FC8A06",
"V  c #FED86F",
"C  c #FEDF68",
"Z  c #FFE16C",
"A  c #FEB322",
"S  c #FEB829",
"D  c #FC8603",
"F  c #FEB525",
"G  c #FC8E09",
"H  c #FFC539",
"J  c #FED775",
"K  c #FED876",
"L  c #FFE471",
"P  c #FDAD1D",
"I  c #FC8302",
"U  c #FDB941",
"Y  c #FFE882",
"T  c #FDB752",
"R  c #FFEE9F",
"E  c #FED780",
"W  c #FDB329",
"Q  c #FED479",
"!  c #FECF59",
"~  c #FECC47",
"^  c #FEBD2E",
"/  c #FED563",
"(  c #FFE67B",
")  c #FD900D",
"_  c #FFEA93",
"`  c #FEBA2F",
"'  c #FEBB28",
"]  c #FED06E",
"[  c #FECC5F",
"{  c #FEC034",
"}  c #FEC24F",
"|  c #FED863",
" . c #FEE383",
".. c #FFE273",
"X. c #FEBC50",
"o. c #FDC35A",
"O. c #FEC341",
"+. c #FEC967",
"@. c #FD9617",
"#. c #FDB534",
"$. c #FD9B1C",
"%. c #FC8D09",
"&. c #FEDF73",
"*. c #FEE18B",
"=. c #FFE595",
"-. c #FED881",
";. c #FDA832",
":. c #FEC851",
">. c #FDAF31",
",. c #FED95B",
"<. c #FDA930",
"1. c #FDD67F",
/* pixels */
"                  X & j u g - - - - g u j & X                   ",
"              X = f h Y _ R R R R R R _ Y h f = X               ",
"            d s a Y _ R R _ =.=.=.=._ R R _ Y a s d             ",
"          O % ..Y _  .Q o.X.T T T T X.o.Q  ._ Y ..% O           ",
"        = p Z (  .[ T T +.1.*.*.*.*.1.+.T T [  .( Z p =         ",
"      O i C ..n X.T ]  .Y Y ( ( ( ( Y Y  .] T X.n ..C i O       ",
"    e % N Z / U o.&.( L L L L L L L L L L ( &.o.U / Z N % e     ",
"  X q ,.N / U o.&.Z Z Z Z Z Z Z Z Z Z Z Z Z Z &.o.U / N ,.q X   ",
"  O 5 m | U } N C C C C C C C C C C C C C C C C N } U | m 5 O   ",
"X 9 ~ | :.U | N N N N N N N N N N N N N N N N N N | U :.| ~ 9 X ",
"& 7 ~ ~ U [ m m m m m m m m m m m m m m m m m m m m [ U ~ ~ 7 & ",
"w H H ^ #./ n n n n n n n n n n n n n n n n n n n n / #.^ H H w ",
"4 { { W S ~ / V V V V V V V V V V V V V V V V V V / ~ S W { { 4 ",
"0 ^ ^ z ` { H ! J K K K J J J J J J J J K K K J ! H { ` z ^ ^ 0 ",
"F S S z S ' S ` O.[ Q E -.E E E E E E -.E Q [ O.` S ' S z S S F ",
"A A A z A F F A A F ` } +.] Q Q Q Q ] +.} ` F A A F F A z A A A ",
"z z z A z z z z z z z z z W W W W W W z z z z z z z z z A z z z ",
"l P P A P l l l l l l l l l l l l l l l l l l l l l l P A P P l ",
", c l A P c c c c c c c c c c c c c c c c c c c c c c P A l c , ",
"1 c c A A k k k k k k k k k k k k k k k k k k k k k k A A c c 1 ",
"2 k k P S k x x x x x x x x x x x x x x x x x x x x k S P k k 2 ",
"@ < x k ' l M M M M M M M M M M M M M M M M M M M M l ' k x < @ ",
". > x x z ^ x b b b b b b b b b b b b b b b b b b x ^ z x x > . ",
"  ; 3 M x ' S b v v v v v v v v v v v v v v v v b S ' x M 3 o   ",
"  . : b b k H S v %.G G G G G G G G G G G G %.v S H k b b : .   ",
"    6 # v v k H { @.B B B B B B B B B B B B @.{ H k v v # 6     ",
"      o $ ) ) $.O.! >.) D D D D D D D D ) >.! O.$.) ) $ o       ",
"        ; $ G %.v >.! ! X.;.$.@.@.$.;.X.! ! >.v %.G $ ;         ",
"          o # B B B v <.} ] K K K K ] } <.v B B B # o           ",
"            8 + r B D D B ) v @.@.v ) B D D B r + 8             ",
"              . o + * D D I I I I I I D D * + o .               ",
"                  . @ y t * I I I I * t y @ .                   "
};
