/* XPM */
static char *_bb65c2782a044e2a1548ec92dadb868[] = {
/* columns rows colors chars-per-pixel */
"64 64 6 1 ",
"  c None",
". c black",
"X c #673AB7",
"o c #3F51B5",
"O c #9C27B0",
"+ c #AA00FF",
/* pixels */
"                   oo                oo                         ",
"                    oo              oo                          ",
"                     ooo           oo         oo                ",
"          oo           oo         o         ooo                 ",
"           oo           ooo .........      oo                   ",
"            o            ...+++++++++...   o         o          ",
"            oo        ...++++.......++++...o        oo          ",
"             o       .++++...OOOOOOO...++++.      ooo           ",
"             o     ..+++..OOOOOOOOOOOOO..+++..    o             ",
"              o   .+++..OOOOOOOOOOOOOOOOO..+++.  oo             ",
"               oo.+++.OOOOOOOOOOOOOOOOOOOOO.+++. o              ",
"                .+++.OOOOOOOOOOOOOOOOOOOOOOO.+++.            oo ",
"               .+++.OOOOOOOOOOOOOOOOOOOOOOOOO.+++.          oo  ",
"              .+++.OOOOOOOOOOOOOOOOOOOOOOOOOOO.+++.         o   ",
"              .+++.OOOOOOOO...........OOOOOOOO.+++.        oo   ",
"             .+++.OOOOOOOO...XXXXXXX...OOOOOOOO.+++.   oooo     ",
"         oooo+++.OOOOOOOO..XXXXXXXXXXX..OOOOOOOO.+++. oo        ",
"        oo  .+++.OOOOOOO..XXXXXXXXXXXXX..OOOOOOO.+++.o          ",
"   ooo oo  .+++.OOOOOOO..XXXXXXXXXXXXXXX..OOOOOOO.+++.          ",
"     ooo   .+++.OOOOOO..XXXXXXXXXXXXXXXXX..OOOOOO.+++.          ",
"           .+++.OOOOO..XXXXXXXXXXXXXXXXXXX..OOOOO.+++.          ",
"          .+++.OOOOO..XXXXXXXXXXXXXXXXXXXXX..OOOOO.+++.      ooo",
"          .+++.OOOOO..XXXXXXXXX...XXXXXXXXX..OOOOO.+++.     oo  ",
"          .+++.OOOO...XXXXXXXX.....XXXXXXXX..OOOOO.+++.    oo   ",
"         .+++.OOOOO..XXXXXXXX.......XXXXXXXX..OOOOO.+++.   o    ",
"      ooo.+++.OOOOO..XXXXXXX.........XXXXXXX...OOOO.+++.  oo    ",
"     oo  .+++.OOOO...XXXXXXX.........XXXXXXX...OOOO.+++.ooo     ",
"  oooo   .+++.OOOO..XXXXXXX...........XXXXXXX..OOOO.+++.        ",
"ooooo    .+++.OOOO..XXXXXXX...........XXXXXXX..OOOO.+++.        ",
"         .+++.OOOO..XXXXXXX...........XXXXXXX..OOOO.+++.        ",
"         .+++.OOOO..XXXXXXX...........XXXXXXX..OOOO.+++.        ",
"         .+++.OOOO..XXXXXXX...........XXXXXXX..OOOO.+++.        ",
"        o.+++.OOOO..XXXXXXX...........XXXXXXX..OOOO.+++.        ",
"       oo.+++.OOOO..XXXXXXX...........XXXXXXX..OOOO.+++.        ",
"     ooo .+++.OOOO..XXXXXXXX.........XXXXXXXX..OOOO.+++.        ",
"    oo    .+++.OOO..XXXXXXXX.........XXXXXXXX..OOO.+++.       oo",
"    o     .+++.OOOO..XXXXXXXX.......XXXXXXXX...OOO.+++.      ooo",
"   o      .+++.OOOO..XXXXXXXXX.....XXXXXXXXX..OOOO.+++.     o   ",
"   o       .+++.OOOO.XXXXXXXXXX...XXXXXXXXXX..OOO.+++.     o    ",
"  o        .+++.OOOO..XXXXXXXXXXXXXXXXXXXXX...OOO.+++.   oo     ",
" o         .+++.OOOO..XXXXXXXXXXXXXXXXXXXXX...OOO.+++.oooo      ",
" o          .+++.OOO..XXXXXXXXXXXXXXXXXXXXX..OOO.+++.           ",
"           o.+++.OOOO..XXXXXXXXXXXXXXXXXXX...OOO.+++.           ",
"          o  .+++.OOOO..XXXXXXXXXXXXXXXXX...OOO.+++.            ",
"          o   .+++.OOOO..XXXXXXXXXXXXXXX..OOOO.+++.             ",
"          o   .+++.OOOOO..XXXXXXXXXXXXX..OOOOO.+++.             ",
"         oo    .+++.OOOOO..XXXXXXXXXXX..OOOOO.+++.              ",
"         o      .+++.OOOOO...XXXXXXX...OOOOO.+++.               ",
"        oo       .+++.OOOOOO.........OOOOOO.+++. o              ",
"        o         .+++..OOOOOOOOOOOOOOOOO..+++.   o             ",
"       oo         o..+++..OOOOOOOOOOOOO..+++..    oo            ",
"       o         oo  .++++...OOOOOOO...++++.       o            ",
"      oo         o    ...++++.......++++...        oo           ",
"      o          o       ...+++++++++...o           o           ",
"                oo          ...o.....    o           o          ",
"                o              o         oo          o          ",
"                o             oo          o           o         ",
"                oo            o           o           oo        ",
"                 o            o           oo           oo       ",
"                 o            oo           o            ooo     ",
"                 o           oo            oo             o     ",
"                            o               oo                  ",
"                            o                o                  ",
"                            o                                   "
};
