/* XPM */
static char *c2f7a82cd82a4d75b986b775fd807d9c[] = {
/* columns rows colors chars-per-pixel */
"64 63 166 2 ",
"   c #092B37",
".  c #0C2F3B",
"X  c #112D39",
"o  c #0C343D",
"O  c #13323D",
"+  c #0C3540",
"@  c #0E3B44",
"#  c #0F3E49",
"$  c #133742",
"%  c #123B45",
"&  c #1A3C45",
"*  c #133D4A",
"=  c #193F4A",
"-  c #144147",
";  c #14414C",
":  c #1B444D",
">  c #1D494D",
",  c #154551",
"<  c #1A4552",
"1  c #174954",
"2  c #1C4B55",
"3  c #164C58",
"4  c #1C4E5A",
"5  c #1D525D",
"6  c #1F595D",
"7  c #20454D",
"8  c #234751",
"9  c #224C55",
"0  c #284E57",
"q  c #224E5A",
"w  c #2A4F5D",
"e  c #304E56",
"r  c #245156",
"t  c #23535D",
"y  c #29545D",
"u  c #26585F",
"i  c #36515A",
"p  c #1F5461",
"a  c #1F5863",
"s  c #245562",
"d  c #2B5661",
"f  c #255A64",
"g  c #2A5B65",
"h  c #255D6A",
"j  c #2B5D6A",
"k  c #305663",
"l  c #345A65",
"z  c #325F6B",
"x  c #2C5F70",
"c  c #2C6067",
"v  c #26616C",
"b  c #2C626D",
"n  c #32636D",
"m  c #3C616C",
"M  c #266371",
"N  c #2C6572",
"B  c #266A75",
"V  c #2D6A75",
"C  c #2E6D79",
"Z  c #326572",
"A  c #396673",
"S  c #326A75",
"D  c #3A6A75",
"F  c #336E7A",
"G  c #3A6D7B",
"H  c #2E717C",
"J  c #34727D",
"K  c #3A727E",
"L  c #39787F",
"P  c #436773",
"I  c #436C75",
"U  c #456E7A",
"Y  c #42727D",
"T  c #2E6F81",
"R  c #3C6F80",
"E  c #2E7381",
"W  c #367481",
"Q  c #3A7583",
"!  c #367983",
"~  c #3B7985",
"^  c #3C7788",
"/  c #3D7C89",
"(  c #427583",
")  c #487583",
"_  c #427A86",
"`  c #497B84",
"'  c #447D8A",
"]  c #4B7E8B",
"[  c #3E828C",
"{  c #3E8692",
"}  c #46838D",
"|  c #44828D",
" . c #4A838C",
".. c #48808F",
"X. c #48828E",
"o. c #4A838F",
"O. c #4C828C",
"+. c #4D838F",
"@. c #4E828F",
"#. c #4A848F",
"$. c #49828E",
"%. c #52808D",
"&. c #50818F",
"*. c #50808E",
"=. c #458591",
"-. c #4B8392",
";. c #4B8591",
":. c #4A8690",
">. c #4B8791",
",. c #4A8593",
"<. c #4C8590",
"1. c #4E8490",
"2. c #4C8493",
"3. c #4C8692",
"4. c #4E8693",
"5. c #4F8795",
"6. c #4B8592",
"7. c #458993",
"8. c #4A8992",
"9. c #4C8892",
"0. c #488894",
"q. c #4C8B95",
"w. c #4C8C95",
"e. c #4B8A95",
"r. c #4D8B9A",
"t. c #4E8D99",
"y. c #518290",
"u. c #528593",
"i. c #588693",
"p. c #538995",
"a. c #538A96",
"s. c #588896",
"d. c #5B8D96",
"f. c #588A93",
"g. c #548798",
"h. c #558798",
"j. c #538898",
"k. c #518B99",
"l. c #508B99",
"z. c #538D9A",
"x. c #5D8D99",
"c. c #5A8E9B",
"v. c #4F919F",
"b. c #4E919D",
"n. c #52909B",
"m. c #50909C",
"M. c #51939F",
"N. c #55919C",
"B. c #54939E",
"V. c #5B919D",
"C. c #58929E",
"Z. c #5C929C",
"A. c #5C909E",
"S. c #5B919D",
"D. c #61919D",
"F. c #5C8FA0",
"G. c #5594A3",
"H. c #5496A2",
"J. c #5C96A3",
"K. c #5598A0",
"L. c #589AA6",
"P. c #5A9CA8",
"I. c #6697A6",
"U. c #669AA7",
"Y. c #629EA8",
"T. c #5CA0AD",
/* pixels */
"Z.o.<.o.<.<.:.| ` K Y s.Z.k.m.T.P.n.A.x.) K ' #.-.5.@._ ( Q ' g.U y d z z A n z g &.a.:.| :.o.<.8.9.o.` P k e i D ` @.:.w.q.` D.",
"' F K J W K J F S f t j Y ] y.@.&.] ) Z s b F V J J J N v v F W u < q t t g s s q Z ' F V F F F J W J J S b g g S F ~ | [ [ Q <.",
":.J ~ ~ Q / Q K K J Z s w k m P P l q q g J Q W ! W Q K V S Q ' g t f j n b j S j Z a.N h B J Q ^ / / ! ~ ! ! ^ W ^ r.G.b.m.0.k.",
"q.F W ! W ^ W W C J F n y : & & : : q n J J J W W W W J J S J ' b j N S F J F K W W 5.N h V J K Q ~ Q W ! Q ! W W | k.5.' | | A.",
"N.W J Q ! ^ W ^ / ^ J F b u r r y c n S J W ^ / Q / W F S b N ' F F ~ ~ Q | :.| _ ' o.F N V C J Q ~ Q W Q Q Q W / ' G j 4 t n d.",
"a.Q F ! ! ! J Q W W Q K F N b b b S J J ^ / Q F J / Q S N h j ( ] W ~ 7.:.q.q.#.5.1.W F J F W W J ! ! J J K J J ' S 2 ; : - ; I ",
"' ( F W W Q W W W J C J J J J K Q Q ^ ^ W J J Q W Q Q F V N N Z ] ' ' q.N.z.k.5.y.S p v J W ^ F W ! W W W J F F ' j < r g u 2 n ",
"G _ F W Q ^ Q J J W / 7.=.! W Q W W W Q Q Q Q J Q J K J C J S 5 x 1.a.| :.l.l.<.D f f S F V ~ ^ ~ Q Q Q Q W F F ' j s g f c g G ",
"Q ' W ^ W W Q F C -.~ K ( | Q E J ~ Q J ! Q J W Q W Q W Q Q N v 7 y ) @.] y.U w 2 j F F C W Q W ~ W W W W K J K ( Z Z S N S S Y ",
"1._ F J W W J F W b 2 # 1 j W F W W Q ^ W J J W W W W W W ^ C V u < 9 < : q 9 : 5 v K W W W J F F Q Q J W J V F _ S W ' K ~ ` d.",
"c.Q V J W W F J K ; , t r 1 G F J J W Q W W Q J J J V H J J J J S c y 8 8 y u 6 v V V J Q ~ ~ Q F W Q J W W F F _ _ ~ ' 0.t.' c.",
"1.F J Q W W F K Z s g g n s K K J W W J J Q Q J N V V ~ ' F V N B V n y y c Z V J J J J W W J C J V J W W Q W J N _ o.<.N.J.-.F.",
"Q N Q ^ W Q F K F N S S S F ' V J ^ Q J J F V J W ~ / 0.t.| Q F E ! J N S J Q Q J ~ ~ V N J W J J J J C W ^ W J S S ' u.-.k.1.y.",
"_ S ^ ^ W ^ J F ' Q ' o._ ' | C J Q K J J N V ' =.7.7.7.w.0.=./ / ! C J Q Q Q Q F Q J M V =.w.| ~ :.~ V J ^ J W K j h b j b j D ",
":.K ~ W W Q K V b o.u.u.A.o.F V K J F F F V J | 8.K f 5 t j J 8.=.W M V J W ^ Q J J J J ~ ' K n S K ~ F N F J Q W J N h v h h y.",
":.K ^ W W W ~ J D s Z ( D j G K Q J C N V Q ' ~ g %   X O . * n ~ Q N S F Q / J J V V ^ J s ; < , , Z ( b h F F H W Q F J K S O.",
"' F F F J Q W Q K Z s 5 s N K Q ! F N M V ' ( s o % : < : ; * % S _ J V K K Q J K V S ( s 2 y u g 2 < Y N v V J W W W Q Q J N _ ",
"| J W W J W Q ~ Q K K K Q ~ Q J W F N N J ~ s * > < 1 4 4 q < : s _ ' F V F K J J v _ Z , j g b j Z t Z K V / J ! Q Q W J J S <.",
"K.0.7.| J V F J ^ Q Q K K W ! ! K Q J Q ~ K , < 4 r t t t u t r 4 Q Q N v V J F N h K j s Z Z S F Z j j Q v V J J W W C H ~ ' J.",
"#.~ ' | J B F Q W W Q W W W W ! V V N F Q b ; t r u s f s s s t h _ Q V V J Q W F N G j G F J L Q J K N K v N J K ^ J V H } | z.",
"Y n G ' _ J F K W Q Q Q Q W W W F N v F _ g r g j g j j b b j f j ' _ F F J Q W J N Q N G ' _ | | o.G ( W N J K K J V V Q ' G ( ",
"y ; 4 Z _ ~ V V J W W W W W Q W F N M J ( s s s j b n b b n S S N ] W v v V J F N v N ' K o.l.l.B.q.( ] N N V K J N N J ' F s n ",
"m q s h K _ v v C J W Q Q Q W J K J J Q ' b b S N S S S S F K ~ Q o.S f b F Q J V V h _ _ ] z.N.l.u.@.S h F V J J V F ~ Q j < z ",
"D g j s S _ N F J W ^ ^ W W K K K J V F ' G N J K K K K ~ ' ~ ^ ' | S h V S J K K J N 5 G ' _ 5.' Q b j N N J J V C J Q F h t U ",
"Y b b N b | J V J W ^ Q Q Q Q W S S b h _ ' N / _ _ ' | | | | _ g.( F F J K Q J W J F N t < 0 l t 4 t b J W W W F N N Q S h j Y ",
"` G K Q F ' V b V J W W W ^ ^ Q J N b h S ' _ K | | 7.0.0.r.:.' u.Z h C J C J Q J W Q J b t t y d s b S J J W Q J F F ( F G _ ] ",
"q._ ' Q ~ ' F N F W ^ Q Q Q Q Q K N N h h K ] ] ' ' 0.H.t.| ,.z.G j h V J J W J W ^ ^ Q J V N N S S F K J J W W F N S ( Q F Q q.",
"C.#.#.' | _ S S J W Q Q W W W W W F S N b j n ] 1.u.<.:.q.z.g.] f b V V F Q ^ C W W J J W W W Q Q W W Q W Q Q F V N N Q 1._ ~ J.",
":.Q o.:.' N h F W W W W W W Q Q ^ W J F J f 1 g ) ] i.f.f.] A q b N S F F W Q W F F J J W W Q W ! W W W Q ^ ~ W J K S N ( ' ' l.",
"x.1.u.( S f v S Q W W J J J J J J W J J F N f 5 y 2 9 d y y g Z N S F J J W J J V S F J J J J J W W W W W Q ~ Q J J F h j ( ] Z.",
"I l g f f N J K W W J J J J J F W J J J V F J N b s 4 2 4 j S V F J J J J J J C V F W ^ W F V V W W Q Q W W Q Q ^ W J V 5 t y U ",
"l = < n F F J K J J W ^ ' =.7.7.' J V K K F J Q F N b b b F J E W K J J J V C Q Q | w.M.w.^ J J J J W Q Q W ^ ^ J J J J S j 7 m ",
"K f v V W W W Q J C / b.H.H.H.H.L.| F V J W W J W J F J W W W W W Q F F V V J w.7.} | | | | [ { / M F W F Q Q W W ! ! J H V h ( ",
"] S J W Q W W J J / ,.0._ N j S ~ :.| F F J F W Q W W W W W W Q J J V V N J / | G t * % < y G <.=.V N V F W W W W F W W J F F ] ",
"#.K ~ ^ W W J F W | F p 1 * * < 4 S ' K V C C W W W W W W J W Q Q F v v F | _ b % o O $ o . < A / F N F Q Q ^ W F ' o.' ' F N u.",
"| F ^ W W J F S ^ _ s ; 2 q y 9 : 1 G _ V F J W W W W W J J W W K V h M Q _ j @ @ - < 9 > * - : W ' J J Q J W J ~ b 1 1 b W N o.",
":.F W W W J V N Q b 1 q d u g u d 4 b _ J J J Q W W W W W W W W F F C J ~ Z ; % 2 4 4 4 r t 4 , F ' F N F C W F N 1 4 s 4 K F <.",
"<.J Q ^ ^ J F S ( j 5 g g s b v g g j Q Q J F K W W W J W W W J F F W ~ ~ s ; q r r t s f s t t N ' F M V J Q J K j j Z h Q V -.",
"<.J Q Q Q J F S Q b g b b b N v b Z b _ J V V J W W W J J W J J V N N W G 1 4 y g g s j j j g s F ' Q V J W W V J _ _ ( ' ~ V <.",
"o.K ~ J F F V N ' Z b Z S S S Q _ Q F o.S v V V W Q Q W W W W J N b h ( S , g u s c b v v b g f G ' Q F F J J F b _ u.<.:.V S 1.",
"o.K Q J ^ F F F W K F Q ' ' ' ' / ' Q | F N N K W ~ J F Q Q J F V M V _ F s j j b Z S b N S F S Q 1.h v F F J W J t d d s S F u.",
":.J Q ~ J W W V W ~ Q / | 7.0.0.:.' ' ' N F Q V C W Q F J W Q W Q F N ' Q h G Z S N S K J K _ _ ' ' b v N C Q W K G z g b K J <.",
"| N F ! W Q J V j Q ' ' | t.m.7.' @.( N S F J Q ^ J ~ ~ Q W Q J J F N W ~ F W K Q ~ ~ ' | #.' Q u.W N N N V ^ W ! ' Q ~ ~ J J ' ",
"q.Q ^ V ! W F C b Z F ' <.o.:.#.u.G S N F Q J J J C J V J Q Q Q S b h N _ ~ N _ W | | | q.#._ o.<.S V J J C W W W W J W B B Q k.",
"z.o.,.J W W J J S f s Z Y ( ) ) j s j F F C V W ' l.:.F Q J F Q N b b h K -.Q Q 8.0.q.t.l.:.-.k.F h N F Q W W W Q ^ ! C V / <.I.",
"D j G ' J C J W K S f r < 9 y < 4 j S J W J F | Z s S _ N V ' C S S N v h K u.] ~ ' l.l.| <.c.@.h b N N W ^ W W F Q W J ' ( j G ",
"y - 4 K J B J W K F F S g t j n S b S J C J Q N , 2 3 J Q F F Q Q V N J b 5 D &.c.u.u.u.f.c._ s v F F C W ^ W W Q W C ~ ( g ; g ",
"P y 4 f K V Q J W W W W N N J S S F W J W V K b s n g Q V S ^ J W W J F S t 1 z Z ( ' ] ] Z s j N J F Q Q W J Q K K V Q Z 1 u Y ",
") n j g ( G F W Q W Q Q F J K J K J J Q W V S Q J ~ _ K F J Q W W ^ Q F V N v h 9 > > > 2 s S V C F W ^ Q W W W J F N ~ p g n ` ",
"] S G j Q N J W W C J ~ ^ J J W K ^ W W Q J V S ] u.] F N J Q J W W W W F F S S j u t t s N J F W W ^ Q J J W Q K J N _ f S S ` ",
"z._ ' J _ C W J Q W J J W / | | | / / ! C J K N s s j N F W Q W ! W W W J J J Q F F N N S J W ! F J W W W W W Q J K F ( N ( _ l.",
"J.q.-.' W J J K W F F / m.m.b.H.H.L.t./ W J J Q S Z Z K ~ W J W Q W W W J J J K W ! W J J J W / W W W W Q Q W W ~ V N R Q K ' Y.",
"U.f.] ~ N V F J J W ^ 7.t.:.~ ~ ^ ~ 0.t.^ C J J W Q K J J Q Q Q W W W Q W J J W W W W J J J J Q Q W J W ^ W W ^ J V F S ' ] #.J.",
"i.G S N F F J S V / -.' Q F b g b F Q | 7.J V Q W ! ! ! W W W W Q Q Q Q W W W W J J J K Q Q Q K F W W W Q F C W Q ~ W h h K ( c.",
"A t s v ~ Q Q S Q ~ ' K s # + o o * t G <.| K C W J W W W J W ^ Q ^ ^ Q W W W W K J W Q Q ^ ^ J F Q Q J W J C F F F W Q N s 2 I ",
"I n S J ^ W J J ' ' W f ; * 8 8 8 8 % 4 Q | W J N W ~ J J ^ ^ J W W W W J W Q W J J Q ^ W W ! F J Q F V Q =.7.7.F F W K ~ Z y P ",
"| J Q ^ Q F J F ' ' Z , 9 q g t s r g 1 b ' K N J J Q Q W W W W K Q J F C V F J W F J W W W W W H W V F Q b g n Q ~ N W ^ J V o.",
"<.Q ^ ^ W C S S ^ Q h 4 t s g f b g j 4 b ' ~ J W Q Q W W W W J F W F C J W Q W F F W ~ Q W W W / V F G 5 1 2 , h K F W W J J q.",
"<.J Q Q W F F F Q Q s g g b b b Z b b h N ' ~ J F J J J J J J F V ^ / | 7.,.0./ F C F W Q Q Q Q F V F Z 4 j n Z h J F C W ^ J ' ",
":.J W Q Q W J J ~ _ j Z Z Z S S S Z F S S ' J V C J W Q Q J F F C | 0.r.0.,.0.0.~ W C F W ^ Q W W Q F Z h G G S N Q F V F Q K 9.",
":.J W Q Q J J F W ' F F K K K K Q Q _ _ ( ' F N C J Q Q J F S F | | ~ W K K ~ / =./ J C J W J J J N v Q Q ' :.| ] _ F C W Q J a.",
":.J Q Q Q J F V F ~ Q F _ ' | | :.:.o.' ' _ F F C J W J F V S J ~ Q Z g < ; s S ~ ' Q F F F F J J J N F ' o.l.l.y.G N C ^ Q F o.",
"o.J Q Q W J F S N ~ ' K _ :.:.w.t.l.<.' ' W F W J K Q Q J F J Q ~ j * + % $ % * F _ ~ F F F J W C ~ S p F ' :.,.Z j V J W J Q a."
};
