/* XPM */
static char *_59fc745e37b4a6cb3a16de77c88e878[] = {
/* columns rows colors chars-per-pixel */
"32 32 6 1 ",
"  c None",
". c #266197",
"X c #28669E",
"o c #266298",
"O c #27659C",
"+ c #256095",
/* pixels */
"X....X....X.....X....X....X.....",
"X+oooO+ ooOo ooOO oooX++ooOo oo.",
"X+oooO+ ooOo ooOO oooX++ooOo oo.",
"X+oooO+ ooOo ooOO oooX++ooOo oo.",
"X+oooO+ ooOo ooOO oooX++ooOo oo.",
"X+oooO+ ooOo ooOO oooX++ooOo oo.",
"X+oooO+ ooOo ooOO oooX++ooOo oo.",
"X+oooO+ ooOo ooOO oooX++ooOo oo.",
"X+oooO+ ooOo oooO oooX++ooOo oo.",
"X+oooO+ ooOo ooOO oooX++ooOo oo.",
"X+oooO+ ooOo ooOO oooX++ooOo oo.",
"X+oooO+ ooOo ooOO oooX++ooOo oo.",
"X+oooO+ ooOo ooOO oooX++ooOo oo.",
"X+oooO+ ooOo ooOO oooX++ooOo oo.",
"X+oooO+ ooOo oooO oooX++ooOo oo.",
"X+oooO+ ooOo ooOO oooX++ooOo oo.",
"X+oooO+ ooOo ooOO oooX++ooOo oo.",
"X+oooO+ ooOo ooOO oooX++ooOo oo.",
"X+oooO+ ooOo ooOO oooX++ooOo oo.",
"X+oooO+ ooOo ooOO oooX++ooOo oo.",
"X+oooO+ ooOo ooOO oooX++ooOo oo.",
"X+oooO+ ooOo ooOO oooX++ooOo oo.",
"X+oooO+ ooOo ooOO oooX++ooOo oo.",
"X+oooO+ ooOo ooOO oooX++ooOo oo.",
"X+oooO+ ooOo ooOO oooX++ooOo oo.",
"X+oooO+ ooOo ooOO oooX++ooOo oo.",
"X+oooO+ ooOo ooOO oooX++ooOo oo.",
"X+oooO+ ooOo ooOO oooX++ooOo oo.",
"X+oooO+ ooOo ooOO oooX++ooOo oo.",
"X+oooO+ ooOo ooOO oooX++ooOo oo.",
"X+oooO+ ooOo ooOO oooX++ooOo oo.",
"X....X....X..........X....X....."
};
