/* XPM */
static char *_63bf1b4cba0487bbe98aebc19622eec[] = {
/* columns rows colors chars-per-pixel */
"64 64 245 2 ",
"   c #336B1C",
".  c #367A17",
"X  c #2F7110",
"o  c #355A37",
"O  c #2F562E",
"+  c #366826",
"@  c #3D712C",
"#  c #2C5C12",
"$  c #477839",
"%  c #43732F",
"&  c #407D1E",
"*  c #261B59",
"=  c #2C255C",
"-  c #35395B",
";  c #303156",
":  c #2D1F66",
">  c #2E2562",
",  c #2E2667",
"<  c #322A66",
"1  c #352C6C",
"2  c #382E6C",
"3  c #31266B",
"4  c #36336C",
"5  c #39326D",
"6  c #383965",
"7  c #332472",
"8  c #362B72",
"9  c #392E74",
"0  c #3A2D7B",
"q  c #352778",
"w  c #3C3374",
"e  c #3E347A",
"r  c #3C3776",
"t  c #423A75",
"y  c #41367B",
"u  c #443B7D",
"i  c #483E7E",
"p  c #403676",
"a  c #423675",
"s  c #34484B",
"d  c #3C5947",
"f  c #3A4757",
"g  c #3E5253",
"h  c #3F6146",
"j  c #3C4463",
"k  c #435857",
"l  c #415556",
"z  c #446747",
"x  c #4B7747",
"c  c #4B6957",
"v  c #577A57",
"b  c #4F774B",
"n  c #424869",
"m  c #4A5968",
"M  c #46427B",
"N  c #4A427D",
"B  c #474876",
"V  c #54587A",
"C  c #4F5376",
"Z  c #4D6462",
"A  c #576B6A",
"S  c #586574",
"D  c #5C7569",
"F  c #667A7A",
"G  c #3C831C",
"H  c #3C8818",
"J  c #398A13",
"K  c #3E8520",
"L  c #42881B",
"P  c #47971B",
"I  c #4DA41C",
"U  c #50AB1D",
"Y  c #478A25",
"T  c #528A28",
"R  c #459322",
"E  c #4B9423",
"W  c #4B9B24",
"Q  c #4D942A",
"!  c #529C25",
"~  c #549B2B",
"^  c #54972B",
"/  c #498537",
"(  c #548A38",
")  c #559837",
"_  c #4E9432",
"`  c #4EA624",
"'  c #53A426",
"]  c #54A42A",
"[  c #59A42D",
"{  c #5BAD2B",
"}  c #55AC26",
"|  c #5DB32C",
" . c #59B829",
".. c #5BA431",
"X. c #5DAB32",
"o. c #5AA73B",
"O. c #5DB331",
"+. c #62B32D",
"@. c #65BA2D",
"#. c #73B12C",
"$. c #62AD35",
"%. c #66AC36",
"&. c #62B334",
"*. c #65BC34",
"=. c #64B33A",
"-. c #6CBE3C",
";. c #69B935",
":. c #77BB38",
">. c #67A72C",
",. c #629E24",
"<. c #5FC22D",
"1. c #63C32C",
"2. c #66C92D",
"3. c #65C233",
"4. c #6DCC34",
"5. c #6DC33C",
"6. c #6AC738",
"7. c #72C435",
"8. c #73CB3C",
"9. c #76C83A",
"0. c #6AD135",
"q. c #74D33A",
"w. c #7AD73A",
"e. c #6DCC2D",
"r. c #578B45",
"t. c #5C8255",
"y. c #558B47",
"u. c #699858",
"i. c #638E4F",
"p. c #5DA743",
"a. c #69A347",
"s. c #6DB743",
"d. c #72A357",
"f. c #79B755",
"g. c #71AF4D",
"h. c #79977B",
"j. c #6D8A6E",
"k. c #74A661",
"l. c #73C543",
"z. c #74CB42",
"x. c #7BCD44",
"c. c #79C747",
"v. c #7CD345",
"b. c #7DD44A",
"n. c #7AD745",
"m. c #75C149",
"M. c #7DE143",
"N. c #83D73E",
"B. c #86C63A",
"V. c #85E33D",
"C. c #85B569",
"Z. c #87C946",
"A. c #82D644",
"S. c #83DD43",
"D. c #8BDC44",
"F. c #82D44A",
"G. c #8CD44D",
"H. c #87DA4B",
"J. c #95D849",
"K. c #88DA52",
"L. c #95D54E",
"P. c #A1DC53",
"I. c #89E346",
"U. c #94E54C",
"Y. c #9CEB4D",
"T. c #95E749",
"R. c #8BE453",
"E. c #8AE456",
"W. c #92E452",
"Q. c #9BE956",
"!. c #A1EA4D",
"~. c #A4EC5B",
"^. c #A6E956",
"/. c #B3EA5C",
"(. c #ABF358",
"). c #B2F35D",
"_. c #B3F556",
"`. c #AAFA4B",
"'. c #9CEF61",
"]. c #B8F665",
"[. c #AFEE68",
"{. c #C6FC5F",
"}. c #C3F56C",
"|. c #C5F869",
" X c #C7F875",
".X c #DBFC7B",
"XX c #D6FD77",
"oX c #D1F96D",
"OX c #3E2E83",
"+X c #3F3282",
"@X c #433483",
"#X c #463C81",
"$X c #493E83",
"%X c #4B3E8A",
"&X c #47378A",
"*X c #412E83",
"=X c #474182",
"-X c #4B4384",
";X c #4E4885",
":X c #4E438A",
">X c #4F488C",
",X c #504686",
"<X c #524B85",
"1X c #51468C",
"2X c #544B8C",
"3X c #584E8F",
"4X c #5A528E",
"5X c #575588",
"6X c #534593",
"7X c #564B91",
"8X c #594E93",
"9X c #594C99",
"0X c #5C5294",
"qX c #5E5399",
"wX c #5B5694",
"eX c #605E8E",
"rX c #605696",
"tX c #615A96",
"yX c #61569A",
"uX c #645A9C",
"iX c #685E9E",
"pX c #604F9F",
"aX c #5D6483",
"sX c #6B629E",
"dX c #696598",
"fX c #737799",
"gX c #676E88",
"hX c #6455A3",
"jX c #665CA1",
"kX c #695EA2",
"lX c #6A59A9",
"zX c #614FA1",
"xX c #6C62A4",
"cX c #6E65A5",
"vX c #7166A6",
"bX c #7166AA",
"nX c #7469AA",
"mX c #786DAA",
"MX c #7875A5",
"NX c #7A8496",
"BX c #738784",
"VX c #8486A9",
"CX c #8FA499",
"ZX c #DAFD80",
"AX c #EDFF94",
/* pixels */
"u u $X$X$X=X$Xu $Xe j / @.w.!.]. X[.'.E.E.F.b.z.5.=...] x 0 u u y y r w w w w e r 0 c  .3.q.U.].}.S.3.` / 0XtXtXuXuXuXuXuXyX8X7X",
"9 y u u u u u y w z } 4.D.).ZXAX X[.'.E.E.F.v.l.-.=.X.~ Q - 3 1 7 1 w e y u #X#X#Xu @Xc <.4.w.I.Y.N.| I x rXtXuXuXuXuXuXqX8X8X2X",
"<X0X0X2X-X-X=X$X#Xo.e.0.M.T.].}. X[.Q.E.K.b.x.l.-.&...^ E $ 1 8 z O e #Xu #Xu #X#X#Xu *XZ <.0.q.q.4.' P k yXuXuXuXuXrX0X8X3X7X1X",
"xXiXrX3X-X-X-X$X&XB *.0.q.I.U.Y.Q.~.R.E.F.v.z.l.=.X.[ ^ Y Y 1 x I X O @X1X:X1X1X>X1X:X=X@XB )  .1.2.U . 4 rXuXtXrXwX0X0X0X8X7X=X",
"sXuXtX2X-X-X=X$Xi @XZ 0.4.q.M.I.n.n.R.b.F.b.z.-.=.$.~ Q P o b 2.R . . s %X8X7X7X7X2X7X2X:X$X%X5XD F D m u 4XtXqXqXwXwX0X4X3X,X<X",
"sXuXrX3X;X;X-X=Xu y 0 ) 2.6.0.q.q.q.n.b.b.b.l.5.=...^ ^ & b q.6.! R G   < 7XwX0X0X0X8X1X2XuXsXkXlXhXhXhXrX0XtXwX0X0X0X4X3X8X;XuX",
"iXuXrX,Xu =X$Xw r -X0X5Xp.2.6.6.6.8.8.F.G.G.Z.9.;.$.~ L b x.S.9.+.' R H O 1 0XjXuX2X;X8XuXuXuXuXuXtXwXrX8XN <XwXwX0X0X3X3X,X<XvX",
"iXuX4X2XuXuX1X=XxXnXvXkXwXp.2.3.6.6.z.G.^.^.L.Z.:.%.T $ m.T.Q.D.7.@.' R . ; 1 N t =X0XrXrXrXrXrXrXqXrX7X5 < w N 2X0X0X0X8X;Xt xX",
"kX0X-XnXmXkX1XtXcXsXiXtX0X-Xy.1.*.*.9.G./.}.^.P.Z.>.T u.Y.^.).!.N.7.{ W G X ; 2 =X0X0X0X0XqX0X0X0X0X2X2 = r y t r w t N u u u =X",
"<XB z V iXtX,XrXuXtXrX0X;X$X8 x | @.:.Z.P.oX.X/.:.,.F C.!.].XX_.T.w.@.P . o M -X=X=X;X,X2X7X7X8X7X;X< < 8XxXkXjXqX2Xi < > rXbX;X",
"t t.#.T D 5X<X0X0X8X2X;X=Xy 4XlXdXt.;.9.G./.oXB.#.v tXC.`.|.XX|.T.7.) v n q y $X$X=X=X=X=X-X-X;Xu > 1 qXxXkXjXjXuXyX8X5 ,XbXkXjX",
"aXg.J.:.>.D 5X<X;X-X-X=X9 ,XnXvXxXlXgXa.B.L.L.#.i.dXfXNXC.~._.J.g.h.MXmXnX4Xr w $X$X$X$X=X-X$Xw > 5 rXjXqX7X3X,X;X-Xr w sXuXuXyX",
"j.L./.^.N.a.V <X=Xu e 1 w uXkXiXuXiXhXqXi.:.#.( iXnXMXVXNXCXCXh.VXVXMXcXxXvXuXy 1 $X$X$X$Xr < = u rXqX1X-XN =X$X$Xu 2 0XuXqX3X2X",
"j.Y. X.X!.7.v M r -X,Xy -XjXuXuXrX0X0X7X:Xv b qXkXsXsXMXfXgXfXNXfXfXsXsXuXuXiXuXp > u y 5 ;X-X$X0X1X$X$X=X#X@Xe w > i 0X<X;X;X=X",
"u.^.XX.X}.D.( t tXbXbX0X,X0X0X2X1X;X-X=X$Xy 7XjXuXuXtXsXeXV eXdXdXtXuXrXrXtXrXqXqX2 * < ,XyX3X=X$X#X=X$X*Xt z s 3 1 r -X-X=X-Xr ",
"d.Q.~.~.^.L.%.S lXuX0X-XN -X=X-X-X=X-X-Xu ;XuXrXrXqX0XqX2XB <X<X3X3X3X8X0X0X0X8X8X-X> a -Xu u u =X-Xy w c =.1.. s 8 r =X$X=Xu ,X",
"a.Z.G.G.G.l.$.S qX,X=Xu $X$X$X=X=Xu u y u 0X0X0X0X0X7X1X$Xr $X$X$X=X-X-X;X;X;X-X-Xu rXbXkX0X=Xu t 5 k s.q.8.=.G . s 9 u #Xe -XkX",
"b +.;.:.;.+./ $X-X$X-Xr u $X$X$X$X-Xu 2 -X;X:X:X-X-X=X$X$Xy w $X$Xu $X=X$X$X$X$Xu -XkXkXkXcXxXB 6 i.S.S.F.n.5.R H . 6 @X$Xw 0X3X",
"M v t.r.r.z 6 &X$X#X8 > r $X#Xr 1 0XuX-X$X$Xu u $X$X$X$Xu 7X1 1 #X$X$X$X#Xu $X$Xu 2XjXrXrXtX;Xm f.Y.W.W.W.U.A.' R H + 2 , 1 $Xy ",
"jXlXlXhXqX6Xe r e 9 u ,Xw 8 w y -Xr u w r $X$X$Xu #X#X#Xr -X-Xw r r r y u #X#X#Xw :X:X-X;Xu Z F.Y.Q.~.~.~.Q.S.*.{ R H O * M 8XrX",
"0X7X1X:X-X=X-Xw 2 rXcXbXxXw 2 uXkXu p u y u r y #X&Xy 1 y 0XqXuXuX0X;Xy w w r w 1 e u -Xr Z A.U.^.[.].].].T.N.q.3.{ W G j 6X3X8X",
"$Xu $X$X$X$Xy 1 $X2XqXjXcXxX1X:X1Xu uXxXsXrX,Xr 1 3 5 ;X$X1X8XqXyXuXkXkXuXrXuXjXrX:X2 < l v.U.Q.].]. XXX_.Y.I.w.3. .' P z &X$X$X",
"r r r r w w = 1 $X$X-X,X0XyXuX-X< u uXyXuXjXiXuX;X2 ;XqX$Xu $X1X0XqXrXuXuXjXuXuXuXiX0X8 c w.A.Y.). XAX.X(.!.I.w.3.{ W P o 7 w w ",
"7X2X<X;XN w 1 1 e u $X$X=X:X1X1X5 $XqX0XrXrXrXqXyX0Xu u y $X$X$X$X1X2XqXrXyXrXrXqX0XqX;X;Xa.w.D.Y.(.XXXX_.Y.S.9.*.} W L g &X2X2X",
"kXkXkXiXiXuX4Xw 3 w y u u y y u r $XqX8X0X0X0X8X8X1Xe q q +X#Xu =X-XN -X:X7X3X2X,X,X;X=XxXeXg.V.U.~.|..X).T.N.4.| ' P $ 9XjXjXjX",
"rXrXrXrXrXqXrX=Xy :X1X2X1X-Xu 9 > w :X1X1X1X1X1X-X@Xl h g 6 5 0 OX@X#X$X$X-X-X$X#Xr 1 =X4XwXgXf.V.Y.).|.^.D.9.*.} W H m zXqXqXyX",
"qXqXrXqX0X0X3X$X1X7X8X8XqXrXrXqX3X,X;X$Xu u #Xu @Xj E ! ! ! Q $ z f w w w r r w 1 4 u 0XuXcXmXMXh.D.T.^.D.9.*.| W R G C 8X0X0X0X",
"0X0X0X0X0X0X-X:X6X7X8X8X0X0XrXuXkXxXkXiXwXu u OXf ^ [ [ [ [ [ ] ' ! Y 6 7 3 7 7 3 u qXqXuXuXsXsXnXBXx.V.9.| { ` R H @ 1X8X8X8X0X",
"8X8X8X8X3X,X#X:X6X6X7X7X8XqXqXrXuXuXiXxXxX;X7 f ! { X.&.O.O.O.X.[ ~ L o l z k k - 3 y u =X;X<X4X4XyXaXs.4.] W R K J d 6X2X1X7X7X",
"2X1X:X;X;Xu #X:X1X1X7X7X8X0XqXrXuXuXjXuXxX2Xd ] X.O.&.*.3.3.3.;.O.W Y @ T +.9.9.+.z : 2 w r y u =X;X-XN o.U H G . + 6 :X>X1X1X7X",
"=X=X$X=Xu e %X:X1X1X1X2X8X0X0XqXrXuXuXkXyXm ' X.&.*.5.z.z.v.v.x.{ W R & / 9.[.].H.$.6 3 w 4 1 8 1 w w 0 n _ . + g 2 9 #X$X-X-X-X",
"$Xu $Xu 1 w %X:X:X6X1X7X7X8X0X0XqXuXuX0XB Q [ X.*.8.A.H.I.W.^.N.| ' E Y $ 8.].|.9.P s $XxXtXw w 7X0XqXqX$Xu n 8XhX;X2 #X#X$X#X$X",
"u $Xy ;X3Xe r @X#X%X1X1X2X8X8X0X0X3X2X=Xn { =.-.z.A.U.^.(.).U.q.| ` E L @ =.D.7.I o ;XxXkXkX3X,XbXkXuXqX=Xu 9XkXkXcXu r u #Xu $X",
"@Xe :XwXuX:Xe y y y #X$X:X:X:X:X-X-X-Xw 3 r.;.l.K.~.}..X.X(.V.4. .' E L + / I L h 9XjXuXrXwX2X;XrXyXqX2Xu ;XyXjXjXcXqXe #Xu $X$X",
"m V 5X1X1X,Xr y y u #Xu u u #X$X=X-Xu =X@Xk *.5.v.W.].AX.XT.w.3. .` P L + f o f :X7X,X,X1X;X=X$X0XqXqX-Xu 8XrXuXkXxXcXu r #X$Xy ",
"S.S.c.d.A $Xw 9 e @X#Xu u u $X=X$X-X2X0XrX$X) 5.x.H.Q.[. XI.q.1.} W E L r.a.x n y &X-X-X-X=X-Xu -X9X1Xu $X8XqXyXiXkXbX3X3 w w v ",
"W.W.U.U.w.A w 4 5 w 9 OX#X$Xu r :X2X8X0XrXpXm *.l.b.K.W.~.q.1.| ` E E ) Q.I.e.| $ f 0 e y u r 3 w 7X$Xu $X8XqXrXuXjXkXuXw 8 i.I.",
"~.~.~.^.w.=.C k.K.s./ d 2 9 3 #X7X7X0XqXuXkX%X( 3.l.z.b.H.3.} ' W P ( K.].).D.7.} L + 6 8XqXu t N u #Xu $X-X8XqXqXuXiXxX=Xt.I.W.",
"].].|.Y.w.q.d.[.].N. .H   ; e 1X7X8X0XrXuXxX7XaX$.=.5.5.z.&.W W P % d.(. X.X).G.5.{ x 4XjXxXqX3XuX-Xw u $Xu $X1XqXuXuXjX5Xz.U.~.",
".XAX|.Y.N.9.9.[.oXN.| K X s &X1X7X8XqXuXiXkX2X9XA | =.=.;.{ R P @ k x.J.(.).Q.N.%.g 0 $X=X:X$X3XuXuXt r #X$X$X$X-X8XrXjXeXc.U.).",
"|.XX_.Y.N.7.;.f.~.A.W H + w +X:X7X8XqXyXkXuX$X=X&Xb } X.$.~ G . 6 6 *.q.D.I.w.u.V 7XuXiXqX=Xr 2XrXiXqXr #X#Xu $X$X=X,X0X2Xm.U.^.",
"].|.!.U.w.*.} T u.I.' X f OXu #X7X8XyXjXuXt < r 0 5 $ _ ] ! + j %X@Xb &.%.a.gXcXnXmXnXvXbXuX$X;XrXyXxX,Xw $X#X$X$X-X=X-X;Xg.I.Q.",
"^.(.I.N.7.{ E H s i.*.d e e y u :X8X0X,Xt y ;X1X,X:X%Xu f g N 9X7X9X$X6 B rXkXsXiXxXxXxXkXkX;Xu 3XrXuXjXr e $X$X$X$X-X-X$Xu.V.H.",
"U.U.q.7.+.' Y . O 1 4 q 0 y u u y $X-X<X0XqX0X8X7X7X,X:X0 @XqX0X8X8X7Xw :X0XtXuXkXiXiXiXuXiX-X#X-X8XrXuX0X> 8 w r u u M @Xv w.v.",
"A.N.*.| ' R . X + $ $ d - 7 q 3 u 2XuXuXrXqX0X0X8X7X1X1X$X;XuXqXqXqX6Xy u -X>X3XqXuXuXuXrXuX=Xy =X=X0XrXuXt = 5 w y y y q k 4.8.",
"8.*.} ' R G .   Q | +. ...$ ; 1XtXuXuXuXuXrXrX0X0X8X7X7Xy 0XuXuXrX1X$Xu y =X-X=X;X:X,X2X8X8Xy r -X=X-X7XrX:X2XnXnXbXcXkXhXm @.3.",
"*.{ W R K . + _ ;.9.F.x.&.L S kXiXuXrXuXuXuXuXrXqXqX8X:Xw uXxXuX;X$X=Xu u y =X-X=X=X-X$X$X$Xr 8 #X-X$X=X:X1XvXbXcXcXkXkXjX<X..&.",
"&.E G G . O g ;.G.[.}.D.P c lXtXuXuXtXqXqXrXqXqX0X2X:X9 u cXuX;X-X-X=X$Xu u u $X$X$X$X$X$X$Xr ;X=Xu i =Xu wXnXcXcXxXkXjXuX3X_ { ",
"] G . X o #Xr X.F. XoX9.P S rXtXrXqXwX0X0X8X2X2X:X-Xu 3 -XwX,X;X;X;X-X$X-XcX1Xu $Xu u u #Xy w <X2X-Xu #X$XxXcXxXkXkXiXuXuX6Xx ' ",
"Y   X d 7X7X%Xm 5.U.L.{ G <XqXwXwX0X0X0X8X8X3X1X1X:Xr 8 <X2X<X;X-X-Xu r $X1X$X5 u u u #Xy w w <X<X2X-X3 1XcXkXkXiXjXuXrXrX9Xz W ",
". # m qX0X7X2X%Xm *.-.J l 9XwXwX0X0X0X3X3X2X2X1X:Xu 2X1XN N ;X,X,Xu ,XiXuXuX,X< 3 q 0 w y $Xy -X,X;X;X2 qXkXuXjXuXuXyXqXqX6Xn P ",
"o V lXrX0X7X1X:X&Xl ~   ;X0X3X3X4X3X3X3X2X1X1X1Xu 0XyXqX1Xp 6XjXcX3XcXbXvXbXnX1X- g 6 0 ,X:X$X;X;X;Xu u uXuXyXuXyXuX0X0X7X1Xu d ",
"jXkXuXrXqX0X7X1X-Xy 4XB $X7X2X3X3X3X2X2X2X1X-Xw 3XkXyXqX0X1Xy -X;XqXkXkXkXkXsXhXv 2.[ d i :Xu $X=X-Xr 1XuXrXrXqXqX0X8X7X2X6Xr 8 ",
"cXkXuXrXqX0X7X2X$XiXbXjX2Xu ;X3X2X2X2X1X$Xp < u cXkXjXrX8X7X$Xw -XuXrXuXuXuXuXhXj.A.9.' % 6 1 $Xu $Xr 7X0X0X0X8X7X2X1X1X1X@X1 4X",
"vXxXkXuXqXqX8X=X2XbXiXuXyX1Xy ,X;X=X$Xy y =Xt <XnXkXuXyXqX7X1Xr 1X0X0XqXrXqXrXiXh.Y.Q.7.{ @ 4 u $Xr $X8X7X7X7X7X7X7X1X1X$X8 ;XmX",
"tXuXqX3X,X:X-Xy uXkXuXrX8X:Xw 2 w y u =X;X,X;XN bXkXuXyX0X7X1Xu $X:X,X2X3X7X2XwXh.].|.J.7.I g OX0 8 :X7X7X7X7X7X1X1X1X%Xw 2 <XrX",
";X;X-X=X-X-Xy u xXuXrX8X=Xu y r #X$X=X-X-X;X2XN iXcXjXyXqX7X1Xy w y y u u u M 5XBX].{.T.=.x 4 4 6 4 &X1X6X1X2X1X1X1X%Xe r 1 u <X",
"<X;X;X;X=X-X2 u 8X,X;X$X$X$Xu y u =X-X;X;X<X2X5X<XrX0X8X7X:X#X1 -X3X8X2X2X1X-X<XS h.C.u.t.b ( ~ { $ @X:X1X6X1X1X1X:Xe $X1X$Xw ;X",
";X;X;X=X-Xy < i ;X-X-X$X$Xy w u u @Xy @X@X$X-X=Xt ;X-X=X-X$Xr <XcXxXxXxXkXiXuXuXtXA a.%.+.| | &.=.I n &X:X:X:X:X%X0 u 3X1X7X-Xu ",
"-X;X;X;Xu , 1 < r y y y y 1 2 +X0 f $ $ z z l f ; r ;X;X$Xy 8XiXuXuXuXuXuXrXqX0X9Xb } X.O.&.*.3.*.} $ OX:X%X%X%X0 y 7X7X2X2X7X$X",
"r =Xr 2 < r -X,X3X0XrXuXrXtX:X< $ I ` ` I P P ] &.z 3 5 2 2XrX0XrXrXrXrXqX0X0X0X6Xc { X.*.5.5.z.5.} ` n @X:X%X9 w 3X8X8X7X7X8X7X",
"5 > t 1XqXuXiXkXkXiXuXuXuX8Xm W U } } ` ` &.l.l.s.*.z , -X0X0XwXqX0X0XqX0X0X8X,X%Xc | =.3.8.n.I.n.|  .z q $Xw 1 3X0X0X0X0X8X8X8X",
"y u qX0XqXqXqXrXrXrXqX0X1XB }  .O. . .6.b.K.b.l.-.=.X.n :X-X:X,X,X,X,X,X1X1X;X-X$Xm | ;.8.n.R.Q.Q.4. .Q < , < ,XqX0X0X0XqX0X0XqX",
"$X$X2X7X8X0X0X0X8X2X;X-XM ) e.4.4.4.K.Q.E.K.b.c.-.=.{ y.#X-X=X-X=X-X=X=X=X-X=X-X&XB =.5.z.I.Q.}.].N.3.` s : ;XuXrXrXrXrXqXqXqXqX"
};
