/* XPM */
static char *_f005696ec8d47148c48f249f86eeac1[] = {
/* columns rows colors chars-per-pixel */
"64 64 135 2 ",
"   c None",
".  c #FC8504",
"X  c #FC8906",
"o  c #FC8D09",
"O  c #FD930D",
"+  c #FD9610",
"@  c #FD9B12",
"#  c #FD951D",
"$  c #FD9F1E",
"%  c #FDA116",
"&  c #FDA519",
"*  c #FDAB1D",
"=  c #FD9F28",
"-  c #FDA722",
";  c #FDAC22",
":  c #FEB222",
">  c #FEB926",
",  c #FDB429",
"<  c #FEBB2A",
"1  c #FCA734",
"2  c #FDAB32",
"3  c #FCA63C",
"4  c #FCAB3B",
"5  c #FDB136",
"6  c #FEBD32",
"7  c #FDB53C",
"8  c #FEBD3A",
"9  c #FEC22D",
"0  c #FEC234",
"q  c #FECB34",
"w  c #FEC53B",
"e  c #FECA3E",
"r  c #FED23F",
"t  c #FCAA44",
"y  c #FCB344",
"u  c #FEBC41",
"i  c #FCB14B",
"p  c #FEBE49",
"a  c #FDB754",
"s  c #FDBA55",
"d  c #FECB43",
"f  c #FEC34D",
"g  c #FECE49",
"h  c #FFD545",
"j  c #FED24E",
"k  c #FFD84C",
"l  c #FEC355",
"z  c #FECB56",
"x  c #FDC35A",
"c  c #FECB5D",
"v  c #FED555",
"b  c #FED955",
"n  c #FED55E",
"m  c #FFDB5B",
"M  c #FDC464",
"N  c #FECD62",
"B  c #FDC268",
"V  c #FDCC6B",
"C  c #FED464",
"Z  c #FEDC66",
"A  c #FED66C",
"S  c #FEDA6B",
"D  c #FDCA72",
"F  c #FED275",
"G  c #FED972",
"H  c #FED77A",
"J  c #FFE066",
"K  c #FFE16C",
"L  c #FEE174",
"P  c #FFE574",
"I  c #FFE477",
"U  c #FFE677",
"Y  c #FFE372",
"T  c #FEE379",
"R  c #FFE678",
"E  c #FFE779",
"W  c #FFE57B",
"Q  c #FEE27D",
"!  c #FEE37F",
"~  c #FFE67C",
"^  c #FEE77C",
"/  c #FEE47E",
"(  c #FFE57C",
")  c #FFE87D",
"_  c #FFE97E",
"`  c #FDD486",
"'  c #FED784",
"]  c #FEDD83",
"[  c #FED88C",
"{  c #FDDE96",
"}  c #FEE380",
"|  c #FFE780",
" . c #FEE683",
".. c #FEE783",
"X. c #FEE387",
"o. c #FEE784",
"O. c #FEE486",
"+. c #FEE587",
"@. c #FFE880",
"#. c #FEE881",
"$. c #FFE884",
"%. c #FFEB84",
"&. c #FFEB85",
"*. c #FFE887",
"=. c #FEE58D",
"-. c #FFE78E",
";. c #FEE88B",
":. c #FFE98B",
">. c #FFEA8B",
",. c #FEEA8C",
"<. c #FEEA8D",
"1. c #FEE98F",
"2. c #FFEB8A",
"3. c #FEE196",
"4. c #FEEA91",
"5. c #FEEA92",
"6. c #FFEB92",
"7. c #FEEC93",
"8. c #FFE896",
"9. c #FFEC95",
"0. c #FFED96",
"q. c #FFEE97",
"w. c #FFEB9A",
"e. c #FEEC99",
"r. c #FEED9B",
"t. c #FEEA9D",
"y. c #FFED9F",
"u. c #FFEDA2",
"i. c #FFEFA2",
"p. c #FEEEA3",
"a. c #FFEFA4",
"s. c #FFEFA6",
"d. c #FEEAA8",
"f. c #FEEEA8",
"g. c #FFF0AB",
/* pixels */
"                                                  *.*.*.*.*.*.*.*.*.*.*.*.*.%.                                                  ",
"                                            ) ) ) ) ) ) ) ) ) ) ) ) ) ) ) ) ) ) ) )                                             ",
"                                      R R R R R R @.;.9.i.s.s.a.a.a.a.u.9.;.@.E R R R R R                                       ",
"                                  P P P P P *.9.a.g.g.g.g.g.g.g.g.g.g.g.g.g.g.s.9.*.P P P P P                                   ",
"                              K K K K P ;.y.u.u.u.u.u.u.u.u.u.u.u.u.u.u.u.u.u.u.u.u.y.;.P K K K K                               ",
"                            K K K K *.w.w.w.w.w.w.w.w.w.e.e.w.w.w.w.w.w.w.w.w.e.w.w.w.w.w.*.K K K K                             ",
"                        J J J J R 1.5.5.5.5.5.5.=.H M a t 3 3 3 3 3 3 t a M H =.5.5.5.5.5.5.1.R J J J J                         ",
"                      Z Z Z K  .;.;.;.;.;.o.V s 3 3 3 3 3 3 3 3 3 3 3 3 3 3 3 3 s V o.;.;.;.;.;. .K Z Z Z                       ",
"                    m m m K o.o.o.o.o.! x 4 3 3 3 i B ` { d.d.d.d.d.d.{ ` B i 3 3 3 4 x ! o.o.o. .o.K m m m                     ",
"                  m m m Y / / / / / c 4 1 1 i D 3.f.u.e.7.1.1.1.1.1.1.7.e.u.f.3.D i 1 1 4 c / / / / / Y m m m                   ",
"                m m m K T T T T G y 1 1 y F t.e.1.@./ / / / / / / / / / / R @.1.e.t.F y 1 1 y G T T T T K m m m                 ",
"              m m m Z L L L L N 4 1 4 V 8.5. .P P P P P P P P P P P P P P P P P P  .5.8.V 4 1 4 N L L L L Z m m m               ",
"            b b b Z Y Y Y Y z 1 1 y ] 5./ P P P P P P P P P P P P P P P P P P P P P P / 5.] y 1 1 z Y Y Y Y Z b b b             ",
"            b b m S S S S p 2 2 x X. .Y Y Y Y Y Y Y Y Y Y Y P P Y Y Y Y Y Y Y Y Y Y Y Y Y  .X.x 2 2 p S S S S m b b             ",
"          v v m Z Z Z Z z 2 2 x o.P K K K K K K K K K K K K K K K K K K K K K K K K K K K K P o.x 2 2 z Z Z Z Z m v v           ",
"        v v v Z Z Z Z z 2 2 l } Y K K K K K K K K K K K K K K K K K K K K K K K K K K K K K K Y } l 2 2 z Z Z Z Z v v v         ",
"        j v m Z Z Z n 2 2 f ! K Z Z Z Z Z Z Z Z Z Z K K K Z Z Z Z Z Z Z Z Z K K K Z Z Z Z Z Z Z K ! f 2 2 n Z Z Z m v j         ",
"      d d v Z Z Z Z 7 2 y G S Z Z Z Z Z Z Z Z Z Z Z Z Z Z Z Z Z Z Z Z Z Z Z Z Z Z Z Z Z Z Z Z Z Z S G y 2 7 Z Z Z Z v d d       ",
"      e e v Z Z Z f 2 5 A G Z Z Z Z Z Z Z Z Z Z Z Z Z Z Z Z Z Z Z Z Z Z Z Z Z Z Z Z Z Z Z Z Z Z Z Z G A 5 2 f Z Z Z v e e       ",
"    e e e g n Z C 5 2 l G Z Z Z Z Z Z Z Z Z Z Z Z Z Z Z Z Z Z Z Z Z Z Z Z Z Z Z Z Z Z Z Z Z Z Z Z Z Z G l 2 5 C Z n j e e e     ",
"    w w d g g n f 5 7 S Z Z Z Z Z Z Z Z Z Z Z Z Z Z Z Z Z Z Z Z Z Z Z Z Z Z Z Z Z Z Z Z Z Z Z Z Z Z Z Z S 7 5 f n g g d w w     ",
"    0 0 d d d d 5 5 z S S S S S S S S S S S S S S S S S S S S S S S S S S S S S S S S S S S S S S S S S S z 5 5 d d d d w 0     ",
"  0 0 w e e e 6 - 7 A S S S S S S S S S S S S S S S S S S S S S S S S S S S S S S S S S S S S S S S S S S A 7 - 6 e w w w 0 0   ",
"  0 0 0 w w w , - 8 S S A A S A S S S S S S S S S S S S S S S S S S S S S S S S S S S S S S S S S S S S S S 8 - , w w w w 0 0   ",
"  9 9 0 w w 0 - - w d C A A A A A A A A A A A A A A A A A A A A A A A A A A A A A A A A A A A A A A A A C d w - - 0 w w 0 9 9   ",
"< < < 0 0 0 < * ; w 0 0 z G G G G G G G G G G G G G G G G G G G G G G G G G G G G G G G G G G F G G G z 0 0 w ; * < 0 0 0 < < < ",
"> < < 6 6 6 , * , 0 0 0 0 d A G G G G G G G G G G G G G G G G G G G G G G G G G G G G G G G G G G A d 0 0 0 0 < - , 6 6 6 < < > ",
"> > > < < < ; * < 6 < < < < 0 c H H H H H H H H H H H H H H H H H H H H H H H H H H H H H H H H c 0 < < < < 0 > ; : < < < > > > ",
"> > > > > > ; * < < > > > > > > w C H H H H H H H H H H H H H H H H H H H H H H H H H H H H V w > > > < > > < > * ; > > > > > > ",
"> > > > > > * * > < < < < < < > > > 8 c ' ' ' ' ' ' ' ' ' ' ' ' ' ' ' ' ' ' ' ' ' ' ' ' N 8 < < > < < > > > > > * * > > > > > > ",
": : : > > > * ; > > > > > > > > > > > > < f V ` ` ` ` ` ` ` ` ` ` ` ` ` ` ` ` ` ` V f < > > > > > > > > > > > > * * > > > : : : ",
": : : : : : : * : : : : : : : : : : : : : : : : 8 l V F [ [ [ [ [ [ [ [ F V l 8 : : : : : : : : : : : : : : : : * * : : : : : : ",
": : : : : : : : : : : : : : : : * : : : : : : : : : : : : : : : : : : : : : : : : : : : : : : : * : : : : : : : : : : : : : : : ",
"* * * * * * : : * * * * * * * * * * * * * * * * * * * * * * * * * * * * * * * * * * * * * * * * * * * * * * * * : : * * * * * * ",
"* * * * * * : : * * * * * * * * * * * * * * * * * * * * * * * * * * * * * * * * * * * * * * * * * * * * * * * * : : * * * * * * ",
"* * * * * * > > * * * * * * * * * * * * * * * * * * * * * * * * * * * * * * * * * * * * * * * * * * * * * * * * > > * * * * * * ",
"* * * * * * : > * * * * * * * * * * * * * * * * * * * * * * & & * * * * * * & & * * * * * * * * * * * * * * * * > : * * * * * * ",
"* * * * * * : > : & & & & & & & & & & & & & & & & & & & & & & & & & & & & & & & & & & & & & & & & & & & & & & : > : * * * * * & ",
"& & & & & & * < > & & % & & & & & & & & & & & & & & & & & & & & & & & & & & & & & & & % & & & & & & & & & & & > < * & & & & & & ",
"  & & & & & & < < * % % % % % % % % % % % % % % % % % % % % % % % % % % % % % % % % % % % % % % % % % % % % * < < * & & & & &   ",
"  & & & & & & > 9 : % % % % % % % % % % % % % % % % % % % % % % % % % % % % % % % % % % % % % % % % % % % % : 9 > & & & & & &   ",
"  % % % % % % * 9 < % @ @ @ @ @ @ @ @ @ @ @ @ @ @ @ @ @ @ @ @ @ @ @ @ @ @ @ @ @ @ @ @ @ @ @ @ @ @ @ @ @ @ % < 9 * % % % % % %   ",
"    % % % % % % 9 9 * @ @ @ @ @ @ @ @ @ @ @ @ @ @ @ @ @ @ @ @ @ @ @ @ @ @ @ @ @ @ @ @ @ @ @ @ @ @ @ @ @ @ * 9 9 & % % % % %     ",
"    @ % % % @ @ : 9 9 @ @ @ @ @ @ @ @ @ @ @ @ @ @ @ @ @ @ @ @ @ @ @ @ @ @ @ @ @ @ @ @ @ @ @ @ @ @ @ @ @ @ 9 9 : % % @ @ @ @     ",
"    @ @ @ @ @ @ % 9 q : + + + + + + + + + + + + + + + + + + + + + + + + + + + + + + + + + + + + + + + + : q 9 % @ @ @ @ @ @     ",
"      @ @ @ @ @ @ : q 9 % O O O O O O O O O O O O O O O O O O O O O O O O O O O O O O O O O O O O O O % 9 q : @ @ @ @ @ @       ",
"      @ @ @ @ @ @ @ 9 q 9 @ O O O O O O O O O O O O O O O O O O O O O O O O O O O O O O O O O O O O @ 9 q 9 @ @ @ @ @ @ @       ",
"        @ @ @ @ @ @ % q e > O O O O O O O O O O O O O O O O O O O O O O O O O O O O O O O O O O O O > e q % @ @ @ @ @ @         ",
"        @ @ @ @ @ @ @ * r r < O o o o o o o o o o o o o o o o o o o o o o o o o o o o o o o o o O < r r * @ @ @ @ @ @ @         ",
"          O O O O O O O ; h h 6 O o o o o o o o o o o o o o o o o o o o o o o o o o o o o o o O 6 h h ; O O O O O O O           ",
"            O O O O O O O 6 k k 8 + o o o o o o o o o o o o o o o o o o o o o o o o o o o o + 8 k k 6 O O O O O O O             ",
"            O O O O O O O O ; b b g $ X X X X X X X X X X X X X X X X X X X X X X X X X X $ g b b ; O O O O O O O O             ",
"              O O O O O O O O - m m m u o . . . . . . . X X . . . . . . . . . . . . . o u m m m - O O O O O O O O               ",
"                O O O O O O O O @ v J J Z 7 o . . . . . . . . . . . . . . . . . . o 7 Z J J v @ O O O O O O O O                 ",
"                  o o o o o o o o o 5 K P P S p = X . . . . . . . . . . . . X = p S P P Z 5 o o o o o o o o o                   ",
"                    o o o o o o o o o + u L / / / T N y 1 # # # + # # 1 y N T / / / L u + o o o o o o o o o                     ",
"                      o o o o o o o o o o + 2 N ;.;.;.;.;.;.;.;.;.;.;.;.;.;.;.;.N 2 + o o o o o o o X o o                       ",
"                        X X X X X X X X X X X X O 2 l F =.9.9.9.9.9.9.=.F l 2 O X X X X X X X X X X X X                         ",
"                            X X X X X X X X X X X X X X X X X X X X X X X X X X X X X X X X X X X X                             ",
"                              . . . . . . . . . . . . . . . . . . . . . . . . . . . . . . . . . .                               ",
"                                  . . . . . . . . . . . . . . . . . . . . . . . . . . . . . .                                   ",
"                                      . . . . . . . . . . . . . . . . . . . . . . . . . .                                       ",
"                                            . . . . . . . . . . . . . . . . . . . .                                             ",
"                                                  . . . . . . . . . . . . . .                                                   "
};
