/* XPM */
static char *_960ce6ed5b9477384f12d0ed0a8dcea[] = {
/* columns rows colors chars-per-pixel */
"64 79 256 2 ",
"   c #47704C",
".  c #FED979",
"X  c #E97E5B",
"o  c #F06639",
"O  c #F9DE8F",
"+  c #FDD978",
"@  c #98A5B0",
"#  c #1DF5FB",
"$  c #FCB659",
"%  c #F5974B",
"&  c #F26237",
"*  c #FED874",
"=  c #FEEB6E",
"-  c None",
";  c #0371E6",
":  c #53D5E6",
">  c #2BADE0",
",  c #43F1F5",
"<  c #26C0E8",
"1  c #0158BC",
"2  c #FED97B",
"3  c #FDE573",
"4  c #59F8F6",
"5  c #0883CE",
"6  c #12B9F0",
"7  c #FC7941",
"8  c #E6E495",
"9  c #F3CF8B",
"0  c #0FAFEF",
"q  c #FCDC71",
"w  c #FBE17B",
"e  c #FDAB4A",
"r  c #17B2EC",
"t  c #FDE770",
"y  c #9AE3F6",
"u  c #15AFE7",
"i  c #FDE173",
"p  c #17B9EE",
"a  c #0A68C7",
"s  c #1D70B9",
"d  c #FEFDB9",
"f  c #1576C7",
"g  c #1AAFE6",
"h  c #9AF3FA",
"j  c #FA9348",
"k  c #FBE67B",
"l  c #FFEB69",
"z  c #1091D1",
"x  c #FDE971",
"c  c #FBAB4D",
"v  c #FEAC48",
"b  c #26FCFB",
"n  c #0DB5F0",
"m  c #25F9FA",
"M  c #67FCFB",
"N  c #10DCF4",
"B  c #0F8BD1",
"V  c #BCC98A",
"C  c #0864BF",
"Z  c #37E1F1",
"A  c #22CFF2",
"S  c #F67C4A",
"D  c #F58C53",
"F  c #F97A44",
"G  c #F1794C",
"H  c #FB8443",
"J  c #F47142",
"K  c #6FF5EE",
"L  c #0785D7",
"P  c #25F9F8",
"I  c #0891DB",
"U  c #F58050",
"Y  c #FAC85F",
"T  c #43FAF8",
"R  c #FBBD59",
"E  c #18CBF1",
"W  c #1EE2F7",
"Q  c #E96844",
"!  c #FCD971",
"~  c #FDD875",
"^  c #E8AB56",
"/  c #F4B05F",
"(  c #79FCF9",
")  c #68F6FB",
"_  c #799A93",
"`  c #F9ED79",
"'  c #FCEB73",
"]  c #F9ED7F",
"[  c #FA7845",
"{  c #F67241",
"}  c #82F7F4",
"|  c #1DF4F5",
" . c #FED875",
".. c #0575C5",
"X. c #0495EC",
"o. c #F39A4E",
"O. c #F5DE93",
"+. c #2CD8F5",
"@. c #0CCBF4",
"#. c #26FAFB",
"$. c #FBF48F",
"%. c #DDC07E",
"&. c #0865BE",
"*. c #15C1EE",
"=. c #FFD873",
"-. c #FFAB47",
";. c #07B5F3",
":. c #FF763F",
">. c #01FFFF",
",. c #FFEC68",
"<. c #06B4F3",
"1. c #1FFDFE",
"2. c #029AD6",
"3. c #07EAFD",
"4. c #FEAE4A",
"5. c #F56135",
"6. c #02CBF6",
"7. c #FE883A",
"8. c #03C9F7",
"9. c #2EFDFD",
"0. c #05B8F3",
"q. c #06BBF4",
"w. c #06BFF5",
"e. c #07C2F5",
"r. c #0CDDFB",
"t. c #03AEF2",
"y. c #01A7F1",
"u. c #0297ED",
"i. c #02B1F3",
"p. c #029FEE",
"a. c #07E4FC",
"s. c #0BE9FB",
"d. c #46FFFE",
"f. c #06D5FA",
"g. c #06D2F9",
"h. c #0666C6",
"j. c #05C5F8",
"k. c #41FCFB",
"l. c #FEDB79",
"z. c #69FDFC",
"x. c #0294D7",
"c. c #4DFAFA",
"v. c #0AC8F3",
"b. c #06CDF8",
"n. c #0AE7FB",
"m. c #58FFFE",
"M. c #057BE9",
"N. c #0289EA",
"B. c #02AAF1",
"V. c #FFD773",
"C. c #06F0FD",
"Z. c #FECB6F",
"A. c #B3FDFD",
"S. c #05F7FD",
"D. c #3AF4FA",
"F. c #0BA3DE",
"G. c #3DE1F6",
"H. c #5EF7F9",
"J. c #25D1F4",
"K. c #FCD17A",
"L. c #049EDA",
"P. c #0090ED",
"I. c #0388D0",
"U. c #03F3FC",
"Y. c #0472C9",
"T. c #1FD9F6",
"R. c #0ECFF5",
"E. c #0784EB",
"W. c #1BEBFA",
"Q. c #0EFDFD",
"!. c #03A2EE",
"~. c #05FCFE",
"^. c #03D9FA",
"/. c #34CBF1",
"(. c #0DC1E9",
"). c #2CFAFB",
"_. c #084AB9",
"`. c #17E1F8",
"'. c #12B9F1",
"]. c #27E4F8",
"[. c #38EAF8",
"{. c #008CD2",
"}. c #0165E5",
"|. c #FD9A44",
" X c #027DCC",
".X c #FDC45A",
"XX c #FB9341",
"oX c #78FFFE",
"OX c #04BAF8",
"+X c #FFA444",
"@X c #1DC7EF",
"#X c #FEF18D",
"$X c #DD8F52",
"%X c #31D8F7",
"&X c #20BFF1",
"*X c #8AFFFE",
"=X c #4BF1F5",
"-X c #05B6E6",
";X c #2BBBE9",
":X c #07A9E2",
">X c #D29A64",
",X c #76F6FA",
"<X c #C59263",
"1X c #2B94D1",
"2X c #FDB553",
"3X c #10D8F7",
"4X c #0559E1",
"5X c #9DFDFD",
"6X c #55E5F6",
"7X c #D7AD63",
"8X c #0379D8",
"9X c #4CDBF3",
"0X c #4A97B0",
"qX c #21B0DB",
"wX c #F6AC4E",
"eX c #FB8C3D",
"rX c #FEE374",
"tX c #24C5DE",
"yX c #ED8E47",
"uX c #32C6F0",
"iX c #90FBFA",
"pX c #FD7D41",
"aX c #FD713C",
"sX c #F86838",
"dX c #FEA149",
"fX c #D4BE72",
"gX c #96A586",
"hX c #FEFB85",
"jX c #2AD0E5",
"kX c #7C9492",
"lX c #3AB9D2",
"zX c #013BB1",
"xX c #FEFFD4",
"cX c #FEFEEF",
"vX c #41AEC6",
"bX c #AD9274",
"nX c #FCE38A",
"mX c #82E2BF",
"MX c #2E77C8",
"NX c #28A4DA",
"BX c #ECB358",
"VX c #70B4A4",
"CX c #5CB2B4",
"ZX c #65EED8",
"AX c #9ED4A2",
"SX c #84AF96",
"DX c #1687D9",
"FX c #7D5283",
"GX c #FCEAB5",
"HX c #49C8BF",
"JX c #FDF472",
"KX c #FEF271",
"LX c #D5FEFD",
"PX c #A47F75",
"IX c #EBFDFC",
"UX c #58C8F2",
/* pixels */
"                                                                                                                                ",
"                                                                                                                                ",
"                                                                                                                                ",
"                                                                                                                                ",
"                                                                                                                                ",
"                                                            :                                                                   ",
"                                                        : Z W E >                                                               ",
"                                                      , m C.r.b.6 , @                                                           ",
"                                                  4 P # ~.C.f.b.9Xy 4                                                           ",
"                                                < N S.>.~.a.%Xh A.A.}                                                           ",
"                                                u ;.b.S.9.,XA.A.A.5XM 4                                                         ",
"                                              @ p ;.w.s.iXLXA.5X*X*Xz.P                                                         ",
"                                              < n ;.;.8.G.5X*X*XoXoXz.b 4                                                       ",
"                                              r ;.;.;.0.v.6XoXoXoXz.z.9.T                                                       ",
"                                            @ p ;.;.;.q.8.J.,Xz.z.m.z.9.b <                                                     ",
"                                      < g g < n ;.;.;.q.6.6.6Xz.m.m.m.k.Q.|                                                     ",
"                                    g 6 +.N E - ;.;.;.w.6.8.J.H.m.m.m.c.Q.N >                                                   ",
"                                  @ a ; %XQ.@.<.;.;.;.w.6.6.6.6Xm.d.d.c.W.w.u                                                   ",
"                                  f ; }.b.S.w.<.;.;.;.e.6.6.8.J.H.d.d.c.T.0.6 >                                                 ",
"                                : L E.M.8.f.i.<.;.;.;.j.6.8.8.8.G.d.9.k.J.<.- r                                                 ",
"                                B X.P.N.0.0.y.i.;.;.;.j.6.b.f.a.# k.1.9.%X<.;.6 >                                               ",
"                              > I p.u.u.t.y.!.y.<.;.0.f.n.U.~.>.~.k.9.1.G.;.;.- r                                               ",
"                              r B.y.!.p.B.p.p.p.t.;.e.S.>.>.>.>.>.1.c.1.[.'.;.;.p :                                             ",
"                            < 6 i.t.B.y.p.u.u.u.p.i.6.~.>.>.>.>.>.~.k.9.D.&X<.;.6 :                                             ",
"                            u ;.i.i.t.B.u.P.P.P.P.y.g.>.>.>.>.>.>.>.1.c.k./.<.'.p @                                             ",
"                          < n ;.<.i.i.y.N.E.E.N.N.u.f.>.>.>.>.>.>.>.~.k.k.9X<.&XA                                               ",
"                          f 5 !.<.<.i.B.N.M.M.M.M.E.g.>.>.>.>.>.>.>.>.1.H.6X'./.A g <                                           ",
"                          s C 1 Y.u.i.q.L.M.; ; ; M.g.>.>.>.>.>.>.>.>.~.k.,X%XG.0 0 *.Z @                                       ",
"                            a 1 _.h.p.8.- x.8X}.}.; r.>.>.>.>.>.>.>.>.>.Q.iX,X# 8.].h h (                                       ",
"                            f 1 I.e.a.^.;.F.x.; 4X}.a.>.>.>.>.>.>.>.>.~.Q.z.iX~.a.G.A.oX) (                                     ",
"                            X &.:Xr.H.UXu.2.2.x.}.4X3.>.>.>.Q.1.# D.[.G.[.H.z.~.f.q.) z.m.M ,                                   ",
"                            s C 0 uXh y DXx.2.2.x.u.W.s.`.T.J.@X&X'.'.'.j.].D.U.b.;.G.d.k.9.b ,                                 ",
"                          @ a F.w.<.6XoXuX{.x.2.2.-Xv.0.;.<.<.<.<.;.;.;.0./.[.a.<.<.J.).# 1.1.#.4                               ",
"                          B 5 `.C.e.9Xm.c.qX{.2.2.L.- ;.;.;.;.;.;.;.;.;.i.uX).^.p.t.@XT.W.H.9.1.m :                             ",
"                        s I :X~.>.U.[.d.d.].x.x.2.L.v.e.;.;.;.;.;.;.;.;.<.uX1.6.u.B.t.- D.A.c.# W :                             ",
"                        B I.R.S.S.~.).d.9.1.(.I.2.L.3Xa.R.q.;.;.;.;.;.;.<./.1.q.P.y.B.e.`.H.H.`.A                               ",
"                        z L.^.a.n.3.W.k.1.1.# L.{.2.R.s.s.r.v.0.<.;.;.;.<./.# p.E.t.0.f.r.=Xk.W.Z                               ",
"                        z - b.g.f.^.T.c.1.1.1.T.I.x.v.s.s.s.n.3Xe.;.;.;.;./.g.F.F.e.v.r.r.[.9.# ,                               ",
"                        u <.w.e.j.8.R.=X1.1.1.).:X{.(.s.s.s.s.s.a.R.q.<.;./.v.F.t.8.R.r.r.[.1.1.m :                             ",
"                        z F.- '.OXOX8.=X9.9.).# -X X-Xn.s.s.s.s.s.s.r.v.0./.v.L.p.8.8.b.3X].).1.# ,                             ",
"                        s C Y.1XNX;XJ.,XiXc.# C.-XY.:Xa.n.s.s.s.s.s.s.n.3XJ.e.2.P.6.b.e.e.T.).1.D.,                             ",
"                          a h.h.h.MX1Xy z.Q.U.C.(.h.x.g.r.a.n.s.s.s.s.s.W.%Xw.x.N.g.^.b.j.j.D.k.K 8                             ",
"                          f ..Y.Y.h.h.1XD.S.C.C.(.h. Xw.b.f.r.a.n.s.s.s.W.%X-XI.E.q.e.w.e.T.,Xz.T                               ",
"                            L  X XY.Y.5 G.C.C.C.-X1 h.:Xq.e.b.f.r.a.n.s.W.T.:X XN.B.p.N.M.M.y M 4                               ",
"                          8 _ I.5 5  X X/.C.C.n.- 1 1 x.<.;.0.w.8.g.r.a.n.J.2.8Xu.i.y.u.M.E.H.K %.                              ",
"                      @ / $ ^ 0X{.I.I.5 lXC.C.^.- 1 _.8X!.t.0.q.;.q.j.g.T.R.I.Y.y.0.t.p.N.;Xc.V $ / 9                           ",
"                      Q o.-.-.gXx.x.{.{.NXW.n.b.-X_.zXh.y.y.w.b.OX;.;.0.@Xv.h.h.i.w.<.y.p.G.ZXBX-.$ w @                         ",
"                    G o % -.-.>X1X2.2.2.F.].^.6.0._.zXY.`.`.].f.OX;.;.<.&X(._.h.q.e.q.t.&Xc.AX-.-.$ + k                         ",
"                  X o & % 4.+XeXkX2.2.2.L.jXb.6.- zX_.@X1.m.A.=Xj.t.;.;.w.tX<X0Xw.j.w.w.G.H.fX-.-.$ * 3 O                       ",
"                @ J 5.& % 4.|.7.<X2.2.2.2.;X6.j.t._.8X`.1.z.IXiX# q.t.;.e.lX$X0Xj.8.8.b.D.mXwX-.-.$ * =.q 9                     ",
"                Q & 5.& % -.XX7.eX0X2.2.2.qXv.0.y.8XN.u.%X5XA.5XD.3XB.i.e.SXyXvX8.6.f.].c.V -.-.-.$ * =. .w                     ",
"              9 o 5.5.& % 4.|.7.7.bXF.L.2.F.&XB.y.y.p.u.&XoXm.m.c.].0 !.;X<X$XqXf.3.S.9.ZXBX-.-.-.$ * =.V.i O.                  ",
"              X o 5.5.& % 4.dX7.7.yXvX0.:XF.0 !.i.i.B.!.@Xd.d.d.d.D.;XE.vXyX$XtXC.>.Q.9.AX-.-.-.-.$ * =.=.+ O                   ",
"              X o 5.5.& % -.-.XX7.7.gXv.e.0.- N.; !.<.t.R.9.9.1.9.9.6XMXbX7.<X(.a.S.Q.=XfX-.-.-.-.$ * =.=.+ O                   ",
"              X o 5.5.& % -.-.+XeX7.$XtXg.8.'.E.4X4XN.t.R.1.1.).# [.9X>X7.7.bX(.^.3.1.mXwX-.-.-.-.$ * =.=.+ O                   ",
"              X o 5.5.& % -.-.-.+XXX7.VXr.^.v.; _.4X}.M.'.W.`.3XR.8.@X>X7.7.<X(.g.a.=XfX-.-.-.-.-.$ * =.=.+ O                   ",
"              X o 5.5.& % -.-.-.-.-.|.$XSXHXjXh.FXPXDXM.N.j.8.8.8.6.@X>X7.7.$XCXtXjXV -.-.-.-.-.-.$ * =.=.+ O                   ",
"              X o 5.5.& % e -.-.-.-.-.+X|.XX>X$X7.eXkXu.P.;.6.8.j.e.'.<X7.XX|.wX7X7X4.-.-.-.-.-.e q ~ =.=.+ O                   ",
"              X o 5.5.sX7 j c v -.-.-.-.-.-.dX|.XXeXyXkXNXB.w.0.i.!.1X>X+X-.-.-.-.4.4.-.-.-.v $ ! 3 ! =.=.+ O                   ",
"              X o 5.5.aX:.:.7 j e -.-.-.-.-.-.-.-.-.+X+X7XCX;XlXVXgX7XwX-.-.2X.X.X.X.X4.v c Y t l ,.3 ~ =.+ O                   ",
"              X o 5.sX:.:.:.:.:.H j e 4.-.4.-.-.-.-.-.-.-.wX7X^ -.-.-.-.-.-.2XrX#X#XrXR Y i = ,.,.,.x 3 V.+ O                   ",
"              X o 5.aX:.:.:.:.:.:.:.H R K.2X4.-.-.-.-.-.4.4.4.4.4.4.4.4.4.2X.X#XxXcXd $.= ,.,.,.,.,.,.t * + O                   ",
"              X o sX:.:.:.:.:.:.:.:.pX|.GXnXZ.Z.Z.Z.Z.Z.Z.K.Z.K.K.K.K.K.K.l.#Xd cXcXxXhXKX,.,.,.,.,.,.= t + O                   ",
"              X o aX:.:.:.:.:.:.:.:.:.pXZ.nXl.=.=.=.=.=.=.=.=.=.=.=.=.=.V.V.rX#Xd xXd hX,.l ,.,.,.,.,.l = + O                   ",
"              X { :.:.:.:.:.:.:.:.:.:.pX.X=.=.=.=.=.=.=.=.=.=.=.=.=.=.=.=.=.=.rX#X#XhXJX,.,.,.,.,.,.,.,.,.x O                   ",
"              9 S 7 :.:.:.:.:.:.:.:.:.7.Z.=.=.=.=.=.=.=.=.=.=.=.=.=.=.=.=.=.=.=.l. .= ,.,.,.,.,.,.,.,.l = q 8                   ",
"                @ G F :.:.:.:.:.:.:.:.XXV.=.=.=.=.=.=.=.=.=.=.=.=.=.=.=.=.=.=.=.=. .i ,.,.,.,.,.,.,.l 3 k 9                     ",
"                    9 D [ :.:.:.:.:.:.dX=.=.=.=.=.=.=.=.=.=.=.=.=.=.=.=.=.=.=.=.=.V.i l ,.,.,.,.l t w 8                         ",
"                        X S 7 :.:.:.:.2X=.=.=.=.=.=.=.=.=.=.=.=.=.=.=.=.=.=.=.=.=.V.+ = ,.,.,.x ' ]                             ",
"                            U J 7 :.pX.X=.=.=.=.=.=.=.=.=.=.=.=.=.=.=.=.=.=.=.=.=.=.* = ,.= q `                                 ",
"                              @ G F 7.Z.=.=.=.=.=.=.=.=.V.V.V.V.V.V.=.=.=.=.=.=.=.=.l.= 3 k 9                                   ",
"                                @ 9 D . . . . . . . . . . . . . . . . . . 2 2 2 2 2 2 w 8                                       ",
"                                                                                                                                ",
"                                                                                                                                ",
"                                                                                                                                ",
"                                                                                                                                ",
"                                                                                                                                ",
"                                                                                                                                ",
"                                                                                                                                "
};
