/* XPM */
static char *_4b3cedffcf241eeb0caf2f4ffa25f06[] = {
/* columns rows colors chars-per-pixel */
"64 64 142 2 ",
"   c #323A47",
".  c #363D4C",
"X  c #38404D",
"o  c #3E4653",
"O  c #3F4658",
"+  c #3F4859",
"@  c #414757",
"#  c #434B56",
"$  c #444C5B",
"%  c #484E5D",
"&  c #47505D",
"*  c #4A525D",
"=  c #474C62",
"-  c #484F62",
";  c #4D5562",
":  c #4F5963",
">  c #4C5268",
",  c #4F5869",
"<  c #505664",
"1  c #525B65",
"2  c #52576A",
"3  c #555D69",
"4  c #595F6C",
"5  c #575E70",
"6  c #576067",
"7  c #596267",
"8  c #57616A",
"9  c #5A646D",
"0  c #5E696E",
"q  c #5D6671",
"w  c #5F6971",
"e  c #60676F",
"r  c #616A6E",
"t  c #616773",
"y  c #626C74",
"u  c #686E77",
"i  c #606779",
"p  c #656E79",
"a  c #696F7B",
"s  c #667076",
"d  c #6A7176",
"f  c #67717A",
"g  c #69727A",
"h  c #6C7379",
"j  c #6B747B",
"k  c #6A757B",
"l  c #6E757B",
"z  c #69717C",
"x  c #69737C",
"c  c #6A737C",
"v  c #6A727D",
"b  c #6B737E",
"n  c #6A727F",
"m  c #68757D",
"M  c #6A747D",
"N  c #6B747D",
"B  c #6A747E",
"V  c #6B757E",
"C  c #6B757F",
"Z  c #69767F",
"A  c #6A777F",
"S  c #6D747C",
"D  c #6C757C",
"F  c #6D767D",
"G  c #6C777D",
"H  c #6C757E",
"J  c #6C747F",
"K  c #6C767F",
"L  c #6D767F",
"P  c #6A737D",
"I  c #6D787E",
"U  c #6F787F",
"Y  c #71787E",
"T  c #6A7181",
"R  c #6B7380",
"E  c #6B7282",
"W  c #6A7780",
"Q  c #6D7580",
"!  c #6C7481",
"~  c #6E7480",
"^  c #6D7780",
"/  c #6D7781",
"(  c #6E7780",
")  c #6E7681",
"_  c #6D7582",
"`  c #6F7782",
"'  c #6E7484",
"]  c #6F7784",
"[  c #6D7681",
"{  c #6B7881",
"}  c #6E7881",
"|  c #6F7881",
" . c #6F7A80",
".. c #6E7882",
"X. c #6F7982",
"o. c #6F7983",
"O. c #6F7982",
"+. c #717783",
"@. c #707782",
"#. c #717880",
"$. c #727981",
"%. c #707B81",
"&. c #707982",
"*. c #707883",
"=. c #707A83",
"-. c #717A83",
";. c #727B82",
":. c #747B81",
">. c #737C81",
",. c #747D82",
"<. c #727884",
"1. c #717B84",
"2. c #727A85",
"3. c #737B86",
"4. c #747A86",
"5. c #737C85",
"6. c #727C86",
"7. c #737D86",
"8. c #777E86",
"9. c #727B84",
"0. c #757B89",
"q. c #757D88",
"w. c #767C8C",
"e. c #777F8C",
"r. c #767D89",
"t. c #787E8A",
"y. c #797F8B",
"u. c #787E8A",
"i. c #778087",
"p. c #778089",
"a. c #798289",
"s. c #7B848B",
"d. c #7A828D",
"f. c #7C838D",
"g. c #7B848D",
"h. c #7C858E",
"j. c #7A828C",
"k. c #798090",
"l. c #7A8191",
"z. c #7E8693",
"x. c #7F8690",
"c. c #828792",
/* pixels */
"a p g f 9 H a H y -.g 9 0 b ) R R b H ;.,.g.w.5 ; * * 1 0 y p g f f f b b g f f N N N a N p p p < 9 q q 0 t 0 8 t 0 w t t t p y ",
"t g -.0 f b p g Y -.t p H ) -.) ) -.) a.i.0 ; 1 * 1 q y y y s g f f f b b g f g b N f N f g p g 3 3 9 t t 0 8 9 0 9 q t t y f f ",
"b g N 8 H H a p h H 9 b H g b b H -.5.d.<.3 * ; 1 q y y y f b g f f f b b g g b g N f N g g a N 8 8 w p y 8 8 0 w w w w t t t y ",
") t w p f H g p d g t H H H H ) :.s.q.k.k.9 * y w y y w y g N b b g g b b b b N N N N f | g g a 1 0 g p 0 8 9 0 9 w q w p p y s ",
"q 0 t | p g p g h y p H ) <.H -.8.f.z.R 3 1 q q w t y p f g N N N b b N N N N H N N ) f ) N a 0 8 p N t 8 8 0 0 w y w t f a y p ",
"q N b f N g y g g 9 g H ) ) b i.t.) y 3 : * : a y w w a N N b N N b N N H N H | N | N N g H t 9 b a p 0 8 9 0 q y y y t t w 0 q ",
"b -.b y N g f g y 0 | ) ] H 5.s.] q 3 : < w y y s t w p N H N N N N N ) ) H H ) H | b ) b b t t b p q 9 9 0 0 q 9 9 w w 9 0 y a ",
"a p a N a p b j e t H a ] -.h.;.q 2 < ; 0 y q y y p b H N N N | N N H | | ) ) | | N ) H -.p p f q q 9 3 3 9 0 8 q q y y 8 9 a b ",
"s y p a f g g g p y <.0.w.w.y 3 * ; 8 y y y y a s m N m m N { W U U H H ) | ) N -.N H t.a < ; & # # * 6 8 9 0 0 0 y y 3 8 N t g ",
"p p p a a s g g e t t.0.y q < ; 8 9 w y y y y p f N N g f N ) ) -.| | | | ) | 5.H | 5.9 * * & 1 * * < 8 8 3 8 0 q y t < 0 H f f ",
"p f a p g g g h 0 a ) t 3 < ; 9 t y y y y y f b j H N b b H | | | N N -.<.| | 5.<.@.4 * < 8 1 1 1 8 9 9 9 9 q p a 3 ; * t y y p ",
"t a p y g g H H y 3 4 < * 3 w t w y y w y f N N j N N H | | -.| -.| | 5.5.<.<.<.J t & < 9 1 1 1 < q 9 ; ; < < ; ; % % 3 b t y p ",
"y p a p g H h b 3 4 < ; 9 t 9 w t y y y y N N f N b N N | | | | -.5.5.| ) ) <.<.y ; < 8 1 < ; 8 3 t 0 : ; < ; * % 3 9 a p y f p ",
"y y s d d H b t < 1 0 t w y y w y y p a f ) N f | W N H | | | -.| -.-.) <.q.@.a 1 : 8 8 1 8 8 < q t t t y y y y y b y a w t y y ",
"p t u d d H b 3 ; 9 0 0 y q 9 y y a f f f N N b o.W b ) <.<.<.<.<.<.-.) ) J y 9 # 8 8 8 1 < 0 1 t q w y y t y y p t 0 f f y y w ",
"y t p h d H a 2 8 w w w y t y y p a m a p p a m b a a ) <.<.-.-.-.<.) y < % % * 6 8 8 1 8 8 < q t t y t 0 t y 0 t t s t t t f y ",
"y y g @.) p 4 ; 9 y a y w y p i i 4 : ; < * * * * * * : 3 8 y ] 0.4 % # & 1 8 3 9 8 8 8 8 8 0 t w w w w q q y y t y y y p p y y ",
"H ) J p 3 ; : 3 9 9 3 3 q y q 3 ; ; ; * ; * * ; < 8 1 1 1 & % 3 % # * 8 0 8 3 9 8 8 8 9 9 9 0 w y t q t y y q 9 0 t y t t t p s ",
"t 4 < > > > > ; : ; ; < < < < < < 8 9 8 8 8 8 8 9 3 < 1 9 9 < ; @ 3 9 8 1 9 9 8 9 9 9 9 9 9 q t 0 q q q 0 q t t p p t w p b J ) ",
"% % % ; : 1 8 9 0 w w 9 1 * * < 0 w w 9 8 8 1 8 8 1 8 8 1 q q ; < 9 0 9 0 9 8 q 9 9 9 9 0 9 0 w t t w t y t 0 8 t t p a J b t 4 ",
"% * ; ; * < 8 w q q w w q q t p y 0 8 8 8 3 1 8 9 9 9 9 8 8 1 & 3 8 3 8 w 9 8 9 8 9 9 w w 0 9 9 0 q w q 0 0 y a g H J y 9 < * % ",
"t 0 0 9 0 t t e y y w q w w w q w 0 8 9 0 9 8 9 9 9 8 9 y 3 & ; 9 w 0 3 8 9 9 8 0 9 9 9 9 9 0 q 8 0 w t t y g ) y y 3 * * * < 8 ",
"0 t y t w w t t w t y t t y y w 1 8 8 3 8 8 6 6 8 q w 9 , % * 3 0 8 9 y t 9 9 w w 9 9 9 9 q w y p y y g H b 9 : % % # * 1 w y y ",
"t y y y w y y y y y t w y y 0 1 < 9 q 9 8 9 0 0 w 9 w 3 @ ; i q 0 0 q 9 8 w y 9 8 9 0 t y y w q t y y 0 : % @ % 1 8 9 0 y y 0 0 ",
"y y y y y y w a y y y y y q 3 ; 9 9 9 9 9 9 9 9 9 9 i & ; w 9 q 9 0 w q 0 0 q w 0 0 3 1 > = @ $ O $ @ @ @ # * 3 t w w w w w w w ",
"w y y w y f p y q w y y 9 < < 9 8 9 9 0 q q q q w q w & < t 9 q w w w w w w w w t 3 ; $ @ % @ . O O # * 1 0 q w t w w w t t t t ",
"y y y y p f y q w 9 8 8 < ; 1 w 9 9 0 0 0 0 q w w w 3 & 8 t q q w w w w w w w q 0 a 3 % ; @ o * # * 1 6 0 y t t w w w w w t t t ",
"a y y f a w w q q 8 < 1 3 8 8 9 0 q q 0 9 0 w t 0 w , & 0 t q q t t t y t t t t q t q < @ # * * & 1 0 t 0 0 w y t w w w y y y y ",
"y p y f y 0 t 0 < 1 9 9 0 9 9 8 0 q w w w t y y 0 w ; * w 0 q q 0 e t t t t t y y y ; o * < & & 1 9 w w t y y w y y y y y p p p ",
"y N f y 9 q y 1 < 8 q 0 0 w w 0 w w y y y y w w 8 8 ; * q t t y e t t t y y t t R : % * * * < < q y w w y y y w y y y y y p p p ",
"f H p w 9 w y * 9 9 9 9 9 q w t t w w w w 0 8 8 1 : ; * 9 y y y a y y y y i w q 4 * % < < & < y 9 w t t t t y f y y y y y p p p ",
"b f 0 w w y y & 9 9 0 w q 9 9 w q 9 8 3 8 8 3 1 8 ; ; & 8 t q 9 w q 3 3 5 5 2 > ; $ * < * 1 y q w y t t t 0 0 y a p p a f f f f ",
"q 0 9 q 0 g 9 * q 0 9 9 9 9 9 9 8 9 9 9 8 3 2 2 2 - @ @ % % % % * % % % % # # & & : < : < 9 w w y w t y y t y y g y w w y p y w ",
"y 0 t g w 9 < 8 9 9 9 9 9 9 9 9 0 8 8 9 9 9 1 ; ; O . o % * ; ; ; ; ; ; ; ; < 1 : < < < 1 9 w w w w t y y t y y y t w w w w w q ",
"q y a y 8 3 1 0 0 0 9 9 9 9 9 9 9 8 q w 3 ; % X   . # ; 3 3 3 8 3 3 3 1 1 3 3 1 1 1 1 1 8 w w w w w y y y t t t w w w w w w w w ",
"9 y y 3 < 0 0 0 w q 0 9 9 0 q q 7 t y q ; # o o % * 1 9 8 1 1 8 3 8 8 3 1 3 1 1 8 1 1 8 0 w t t y t y y t w t w w t t t w w w t ",
"t w 0 8 9 w 0 t q q q 0 q q w w 8 p 9 ; ; ; < 8 0 8 6 6 8 8 6 6 1 8 8 8 3 8 8 1 1 3 8 0 w w t y t t t t w w y t w w w w w w w w ",
"t w w 9 t q 9 w 9 0 q w w w w q y t ; & 1 9 8 0 6 6 6 8 9 9 9 8 7 8 8 8 8 8 8 3 8 8 q t t t t y w 0 0 0 0 w y y t w q w w w w w ",
"0 p a 8 w w 0 q w w w w w w t t b 4 * < 8 9 3 1 9 9 9 8 8 8 8 9 9 9 8 8 8 4 3 3 0 w y y y y y y w 0 y y 0 y y y y t w w w w t t ",
"y f g 9 y t w y y y w q q t y a ] 3 < 8 6 1 9 9 9 8 8 8 9 q 9 9 8 8 8 8 9 8 9 9 y p s y y y y y y y p y y y y y y y t w w w t y ",
"t H a q p y 0 y w y w t w q g -.q ; 3 q 8 8 8 8 9 9 9 9 9 9 9 9 9 9 9 9 8 8 w y y y 0 y y y y y p p y t t t t t y w w y y 0 9 q ",
"g H t 3 w f y y y y t y t w H ) 1 ; 8 0 8 9 0 9 9 9 9 0 0 0 0 0 9 9 8 9 0 w y s y y y t y y y y y y y p y t w w 0 y y w w y y 0 ",
"a 0 3 w f y w f y y y y y t <.p * 3 9 9 8 9 w 9 0 0 q q 0 0 9 9 w 9 9 w y y p s y y y y y y y y s y y y y 0 0 t y t t t 0 0 t y ",
"8 9 q y y y y y p y y y y a 8.3 * 9 9 9 9 9 w 9 q q q 0 9 9 8 8 9 q w t y s y y p y y y y y y y 0 w y s s s y y t t t p p p g j ",
"t y a a y y a y p a p y a b ) * < q 9 9 q 9 0 0 0 0 9 9 9 8 8 3 < q p y y s s y s p y y y y y y y s p t 0 t t w p H ) H H -.H p ",
"f y y b f p a f p f a p b ) y * 8 9 8 9 w 9 9 w 9 9 9 9 9 9 8 8 < w f s y s s y s p y y y y y y y a a y y f N N f a p y p p t 9 ",
"t f f p f N N y f b a b N ) 3 ; 0 9 q w t w 9 w q 0 9 9 9 9 9 9 w y f s y y y y s s s y y y s s b H ) <.) p q q q 3 3 9 q 9 0 t ",
"g f a f f y y N f b p N ) ) ; 3 y 0 y y y y 0 w w q 0 9 9 9 9 9 g f s s s s p f y y y s s s s s 9 3 1 9 9 3 9 a a b b ) ) ) b g ",
"a b ) N a f N N N f b 8.q.q % 2 a y y y y y t w q 9 w p 9 9 8 0 a y y s y r r d p g s g -.p 1 < 0 p y 9 y H N f N N N ) ) b f s ",
") a y a g N N g -.q.h.-.* % < < p y y y p y y y t y w 0 w y 0 0 N j s y p N g p y y b b 9 < q b H N g b H N N | ) N N N b f f f ",
"f g H ) ) H -.a.d.8.q < ; y q % f p y a f p y y t p w 9 p y t 0 e y s N f q , - @ % ; % % 9 b R H a f ) N a g | ) N b g f a f g ",
"j U H @.8.q.a.c.q.9 * 8 y y * 1 b f f f f a p p y y p y f w w 9 N j b a 3 $ @ ; 1 : $ * w b a N g a f N g N ) N N N b g f g N H ",
"8.h.h.z.z.8.u t 8 * 0 a q 8 * y N g f f f f f f a y g p y w w , q q 8 * # & 3 y f f y y ) f y N N b N N b H | g | ) N N H -.8.8.",
"d.<.p 8 3 1 < 1 < 4 y 9 y y 1 y N b g g g g g b a p s 0 0 p q ; % @ @ & < 9 t s p y f s y s N j N g b H H H H N 5.| b b | 8.a.a.",
"b 3 * < 9 t t t p y w 0 N 1 < ) N N N N N g f f y t y 9 y g < 1 q < < q f y y s N w w b N f b N N N H | -.| | 5.<.H g b -.a.a.8.",
"< % < y y q w y w w y t q < b ) H H ) ) N f p y t t y y H g * i w w t y y y y y w N f y f f p m f | | N ) | | <.| N b H q.f.8.H ",
"< 0 q t t w p y t w a q ; q 5.H | ) ) ) N a y y a a a b 8.8 * i w w y y p y y p w s f f f s f N b ) H f m -.5.<.H H p.q.) y 3 ; ",
"y w 0 t y w t y y a q 3 q ) <.H | | ) N a y y f a p a H 8.< % i y w 9 q t y y y f f p y f N -.a.q.q.q.d.d.a.d.h.d.q.<.q & # ; 0 ",
"t 0 w t t q w f y 0 1 9 b -.) ;.| N f a f f f f p J H H -.; : i w 0 w w y y f b W W W <.q.<.a y p a b ) <.a.d.t.a 1 * * < 0 t t ",
"w t g p p f y f q 3 9 ) 5.-.;.8.g a p f b H b g g h g H ) * 1 p y y a f f a p y i i w q 3 : % @ * % % * & ; < * % * 3 q 0 q 0 t ",
"p t p p f b w 0 3 q b <.| U H g t a N H b g b b g p g a.w.* ; 3 < < , : ; % @ + O $ % @ @ @ : q a 3 < 9 3 ; < 3 q 9 q q q t 0 0 ",
"p 0 q y y q 8 q w N -.| H s w t f b H N b b b b a -.q.<.y % * ; < 1 1 : - % > 2 q y p a a p a a y 1 3 9 9 9 t y y q q 0 8 0 t g ",
"y y y f y 9 t H | -.-.U g t t b ) H b g H -.-.H 5.q.b 1 # * 9 t q q y q 9 q a ] b b f f N b p t 3 3 9 9 9 p g 0 a q t q 0 w 0 0 ",
"y f p a y t g H | g H s 1 0 ) b b H N H ) <.8.8.<.9 % * ; q y g b y q y g N b f f g f s s p p g ; : 9 w 9 y y 8 9 8 q w w y y p "
};
