/* XPM */
static char *ec676da011754daa909afede20b726f6[] = {
/* columns rows colors chars-per-pixel */
"64 62 234 2 ",
"   c #020203",
".  c #0B0101",
"X  c #0B0A05",
"o  c #02030B",
"O  c #070A09",
"+  c #120201",
"@  c #1B0B03",
"#  c #160709",
"$  c #1C130B",
"%  c #15130A",
"&  c #040D19",
"*  c #09161C",
"=  c #1C171B",
"-  c #130B18",
";  c #280406",
":  c #28170B",
">  c #271C18",
",  c #311316",
"<  c #282214",
"1  c #392817",
"2  c #031424",
"3  c #131B22",
"4  c #00132E",
"5  c #271D26",
"6  c #1C2528",
"7  c #052435",
"8  c #04252C",
"9  c #262629",
"0  c #382B26",
"q  c #39362D",
"w  c #383837",
"e  c #2E2739",
"r  c #4E2416",
"t  c #672C15",
"y  c #473927",
"u  c #503B28",
"i  c #572F2F",
"p  c #633A28",
"a  c #6E4D18",
"s  c #4B4225",
"d  c #594B37",
"f  c #51472F",
"g  c #775C2A",
"h  c #664E3B",
"j  c #6B4F2F",
"k  c #756635",
"l  c #052B46",
"z  c #122A42",
"x  c #04344D",
"c  c #132953",
"v  c #05365B",
"b  c #143152",
"n  c #282D47",
"m  c #073D6A",
"M  c #153E77",
"N  c #0E3A69",
"B  c #0C4259",
"V  c #09456C",
"C  c #18476A",
"Z  c #004C7C",
"A  c #144374",
"S  c #145678",
"D  c #0D5575",
"F  c #494947",
"G  c #55534C",
"H  c #5C534C",
"J  c #595856",
"K  c #514950",
"L  c #725F45",
"P  c #615D58",
"I  c #624F4A",
"U  c #5A615A",
"Y  c #656148",
"T  c #75624A",
"R  c #7D674A",
"E  c #65625C",
"W  c #796951",
"Q  c #7A7C55",
"!  c #5F5967",
"~  c #695C66",
"^  c #5C6367",
"/  c #546D6C",
"(  c #626363",
")  c #696868",
"_  c #696771",
"`  c #777274",
"'  c #866627",
"]  c #966E33",
"[  c #9D7C34",
"{  c #9D7923",
"}  c #A67936",
"|  c #A8762F",
" . c #945F40",
".. c #8A6F4C",
"X. c #8A714E",
"o. c #866A54",
"O. c #857355",
"+. c #977A58",
"@. c #A77E4A",
"#. c #947A64",
"$. c #827562",
"%. c #9B8033",
"&. c #AA8338",
"*. c #B58939",
"=. c #B19236",
"-. c #C5953F",
";. c #D2A839",
":. c #9C845A",
">. c #A8864C",
",. c #B78B42",
"<. c #BB9349",
"1. c #A88757",
"2. c #BC9754",
"3. c #9C8967",
"4. c #9C8B70",
"5. c #A58967",
"6. c #A6936A",
"7. c #AB9575",
"8. c #B39C77",
"9. c #B78E68",
"0. c #BBA577",
"q. c #B2A26D",
"w. c #C89848",
"e. c #D59E47",
"r. c #D8A649",
"t. c #DAA858",
"y. c #CDA359",
"u. c #E7AE47",
"i. c #C7A563",
"p. c #C5A77C",
"a. c #D2AF7D",
"s. c #E7B26C",
"d. c #F3CB74",
"f. c #054286",
"g. c #0A5584",
"h. c #045385",
"j. c #0F5998",
"k. c #185996",
"l. c #145988",
"z. c #265E97",
"x. c #116297",
"c. c #135CA8",
"v. c #1967A6",
"b. c #196CB5",
"n. c #1B75B8",
"m. c #2869B7",
"M. c #2470B4",
"N. c #7C8283",
"B. c #858389",
"V. c #8A8B95",
"C. c #97929B",
"Z. c #90908F",
"A. c #B79B84",
"S. c #A4958C",
"D. c #BBA384",
"F. c #9698A2",
"G. c #A19BA5",
"H. c #9FA0A4",
"J. c #A6A8A8",
"K. c #ACA9B6",
"L. c #B4B0B2",
"P. c #C3AB82",
"I. c #C6AD8B",
"U. c #D9AB86",
"Y. c #DAB98B",
"T. c #CCB493",
"R. c #D5BEB4",
"E. c #C4ACA2",
"W. c #FAD58C",
"Q. c #EBC696",
"!. c #F2CB95",
"~. c #FACE95",
"^. c #F5CD9B",
"/. c #FACE9C",
"(. c #F2C794",
"). c #FCD397",
"_. c #F5D29C",
"`. c #FCD39D",
"'. c #FDD99D",
"]. c #FAD696",
"[. c #FFE29B",
"{. c #CDC5A9",
"}. c #E9CBA3",
"|. c #F6CEA1",
" X c #FBCEA1",
".X c #F0CCAA",
"XX c #EDD4A6",
"oX c #F4D2A1",
"OX c #FDD4A1",
"+X c #FEDAA5",
"@X c #FDD4AA",
"#X c #FEDBAA",
"$X c #F6D6AA",
"%X c #FDDDB2",
"&X c #FAD9B5",
"*X c #FEE2A5",
"=X c #FEE3AC",
"-X c #FFEBAD",
";X c #FFE4B3",
":X c #FFE4BC",
">X c #FCE9B4",
",X c #FFF4BE",
"<X c #BDBDC6",
"1X c #BDC1C2",
"2X c #C3C2C8",
"3X c #DBDCDA",
"4X c #D6DBDD",
"5X c #E3DCCA",
"6X c #F7EDCC",
"7X c #DEDFE3",
"8X c #E2DFEF",
"9X c #E5E6E6",
"0X c #F8EDEA",
"qX c #F3F5ED",
"wX c #FFFFEE",
"eX c #F7F8EC",
"rX c #EBFBFC",
"tX c #F3F5F5",
"yX c #FBF6F5",
"uX c #F5FAF4",
"iX c #FCFCF5",
"pX c #F5F5FB",
"aX c #FBF6FB",
"sX c #F5FCFC",
"dX c #FDFAFE",
"fX c #FAFDFE",
"gX c #FFFFFD",
"hX c #FFFDFF",
"jX c #FEFEFE",
"kX c white",
"lX c #FFFEFF",
"zX c #FDFEFE",
"xX c #FEFFFE",
"cX c #EAF0F1",
/* pixels */
"kXkXkXkXkXkXkXkXkXkXkXkXkXkXkXkXfXkXkXkXiXfXaXdXiXfXfXfXfXkXdXdXdXfXfXsXkXfXfXkXwXiXfXkXkXkXkXdXkXkXkXkXkXkXkXkXkXkXkXkXkXkXkXkX",
"kXkXkXkXkXkXkXkXkXkXkXkXkXkXkXkXkXkXfXkXdXkXfXiXpXkXfXfXkXpXdXfXiXiXfXdXpXdXkXuXkXkXkXdXkXfXkXkXkXkXkXkXkXkXkXkXkXkXkXkXkXkXkXkX",
"kXkXkXkXkXkXkXkXkXkXkXkXkXkXkXkXkXfXkXdXkXyXfXfXkXdXkXkXkXkXkXiXdXkXiXfXfXfXaXtXdXkXkXkXfXkXkXfXkXkXkXkXkXkXkXkXkXkXkXkXkXkXkXkX",
"kXkXkXkXkXkXkXkXkXkXkXkXkXkXkXkXfXiXdXiXfXfXdX8XB.9 F K F J G G G f w 9 J.9XfXkXiXuXfXfXfXfXuXkXkXkXkXkXkXkXkXkXkXkXkXkXkXkXkXkX",
"kXkXkXkXkXkXkXkXkXkXkXkXkXkXkXkXdXfXiXiX4X` H @ j ..9.p.Q.Q. X(.Y.p.7.W d X ) N.uXfXfXtXfXfXkXkXkXkXkXkXkXkXkXkXkXkXkXkXkXkXkXkX",
"kXkXkXkXkXkXkXkXkXkXfXfXfXfXfXfXkXkX7X( < y 6.XX%X;X;X#X#X`.OX`.`.+X+X#X#X}.4.1 > ` dXkXdXiXfXiXkXkXkXkXkXkXkXkXkXkXkXkXkXkXkXkX",
"kXkXkXkXkXkXkXkXkXkXfXfXfXfXfXfX9X) + I I.;X+X'.oX+XOX/.`.`.OX`.'.!.OX#XOXOX+X+XA.y $ B.fXyXkXfXkXkXkXkXkXkXkXkXkXkXkXkXkXkXkXkX",
"kXkXkXkXkXkXkXkXkXkXfXfXfXfXfXfX6 < I.=X+X/.`. X@X/.OXOX/.OX_.OX@X|.OX_._._._.oX'.%X7.. G kXiXfXkXkXkXkXkXkXkXkXkXkXkXkXkXkXkXkX",
"kXkXkXkXkXkXkXkXfXfXsXkXiXkXpX: j &X%X`.`.`.@XOXOXOXOXOXOXOXOXOXOXOXOXOXOXOXOXOX_._.=X}.: F kXsXiXfXaXkXkXkXkXkXkXkXkXkXkXkXkXkX",
"kXkXkXkXkXkXkXkXkXkXkXiXfXtXq #.$X#X^.`._.`.`.OXOXOXOXOXOXOXOXOXOXOXOXOXOXOXOXOX`.`.!.@X&XT H kXkXkXkXyXkXkXiXkXkXkXkXkXkXkXkXkX",
"kXkXkXkXkXkXkXfXfXkXeXiXpXq 5.:X+X^.OX`.`.+X_.`.OXOXOXOXOXOXOXOXOXOXOXOXOXOXOXOX+XOX@X!.'.#XT I fXsXdXkXfXfXkXkXkXkXkXkXkXkXkXkX",
"kXkXkXkXkXkXkXfXfXaXfXsX= L ;X/.`.+XOX/.OX/._.'.OXOXOXOXOXOXOXOXOXOXOXOXOXOXOXOX`. XOXOXW.*X%Xr F kXpXkXkXfXkXsXkXkXkXkXkXkXkXkX",
"kXkXkXkXkXkXkXkXfXiXdX9 u ;X`._._.`.`.OX#XOX+X`.OXOXOXOXOXOXOXOXOXOXOXOXOXOXOXOX`.@X^.@X`.!.@X}.$ P kXdXiXfXfXkXkXkXkXkXkXkXkXkX",
"kXkXkXkXkXkXkXfXaXfXL.$ XX'./.+X@XOX#X/./.OXOX`.OXOXOXOXOXOXOXOXOXOXOXOXOXOXOXOX_.OX#X^.OX@X_.+XI.$ 3XsXkXfXkXkXkXkXkXkXkXkXkXkX",
"kXkXkXkXkXkXkXfXfXkX0 #.=X).`.OXOX`.OXOX#XOX`.+XOXOXOXOXOXOXOXOXOXOXOXOXOXOXOXOX+X^.OX`.OXOX+X!.%Xd E fXkXfXfXkXkXkXkXkXkXkXkXkX",
"kXkXkXkXkXkXfXfXfXK.> %X/._._.@X`.+X`.`.`.`.`.`.OXOXOXOXOXOXOXOXOXOXOXOXOXOXOXOX`.OXOX`.`.`._.OX+XT.$ 9XfXkXkXkXkXkXkXkXkXkXkXkX",
"kXkXkXkXkXkXfXkXsX5 :.#X^.'.OXOXOXOXOXOXOXOXOXOXOXOXOXOXOXOXOXOXOXOXOX`.OXOX+X_.@X X XoXOXOXOX'./.:Xa J kXpXkXkXkXkXkXkXkXkXkXkX",
"kXkXkXkXkXkXfXkXcXq Y.+X@X`.^.@XOXOXOXOXOXOXOXOXOXOXOXOXOXOXOXOXOXOX`.`.OXOX`._._.@X+X^.OXOX/._. X$X6.F yXsXdXkXkXkXkXkXkXkXkXkX",
"kXkXkXkXkXkXfXkX) 0 ;X_.OX_.OX`.OXOXOXOXOXOXOXOXOXOXOXOXOXOXOXOXOX`.`.OXOX`.`.OX+X).)._.OXOXOXOX/.$XXX$ L.fXkXfXkXkXkXkXkXkXkXkX",
"kXkXkXkXkXkXfXkXJ T ;X_.OX_.OXOXOXOXOXOXOXOXOXOXOXOXOXOXOXOXOXOX`.OXOXOX`._.@XOXXX#X'.`.`././.oXOXoX=X1 C.fXfXkXkXkXkXkXkXkXkXkX",
"kXkXkXkXkXkXfXkX( 3.`.OX#XOX/.OXOXOXOXOXOXOXOXOXOXOXOXOXOXOXOXOX`.OXOXOX`.`.#XY.h Q.`./.@X`.`.#X`.|.=XL G.kXuXkXkXkXkXkXkXkXkXkX",
"kXkXkXkXkXkXfXkX( 0.=X_._.OX`.OXOXOXOXOXOXOXOXOXOXOXOXOXOXOXOXOX`.OXOX`.`.`.#X5.. I.#X@XoX`.`.^._.OX=XX.C.fXsXkXkXkXkXkXkXkXkXkX",
"kXkXkXkXkXkXfXkX_ p.+XOXOX@X`._.OXOXOXOXOXOXOXOXOXOXOXOXOXOXOXOX`.`.OX`.`._.;Xo.. 8.*XOX^.'.+X@X_. X-X:.F.fXuXkXkXkXkXkXkXkXkXkX",
"kXkXkXkXkXkXfXkX_ a.+X+X_. X`._.OXOXOXOXOXOXOXOXOXOXOXOXOXOXOXOX`.`.@XOX`.!.6XT   6.*X!.@X'.`.@XOX X*X:.F.fXuXkXkXkXkXkXkXkXkXkX",
"kXkXkXkXkXfXiXkX_ 0.+XOXOXoX+X~.OXOXOXOXOXOXOXOXOXOXOXOXOXOXOXOX`.OX@XOX`.!.:XR   4.-X/.@X`.].@XOXoX=X+.F.fXdXfXkXkXkXkXkXkXkXkX",
"kXkXkXkXkXfXiXkX) 6.+XOXOX#X!.'.OXOXOXOXOXOXOXOXOXOXOXOXOXOXOXOX`.OXOX`.`._.%XX.. 8.+X/.OX`.`.OX`.oX*XR F.fXkXfXkXkXkXkXkXkXkXkX",
"kXkXkXkXkXfXiXkX) O.=X!.+X_.+X`.OXOXOXOXOXOXOXOXOXOXOXOXOXOXOXOX`.OXOX`.`._.@X6.+ P.+XOX/.`._.OX~.@X+Xd C.kXyXsXkXkXkXkXkXkXkXkX",
"kXkXkXkXkXkXfXkXK s ;X`._.+X`.`.OXOXOXOXOXOXOXOXOXOXOXOXOXOXOXOX`.OXOXOX`._.+XY.o.oX`./. XOX+X|.`.OX%X% Z.kX0XfXkXkXkXkXkXkXkXkX",
"kXkXkXkXkXkXfXfXL.y XX`._.`.OX@XOXOXOXOXOXOXOXOXOXOXOXOXOXOXOXOX`.OXOXOX`._.@XOX$X#X~./.@XOXOXOX_.#XU.q 3XkXaXfXkXkXkXkXkXkXkXkX",
"kXkXkXkXkXkXfXfXkX$ D.+XOX@X/.OXOXOXOXOXOXOXOXOXOXOXOXOXOXOXOXOXOXOX`.OXOX`.`.OX@X`.OXOX@X/.`.OX_.;Xo.w kXyXfXsXkXkXkXkXkXkXkXkX",
"kXkXkXkXkXkXiXfXkX~ h ;X^./.`.OXOXOXOXOXOXOXOXOXOXOXOXOXOXOXOXOXOX`._.OXOXOXOX_.`.`.OX_.OXOXOX_.#X+X> J.fXfXsXkXkXkXkXkXkXkXkXkX",
"kXkXkXkXkXkXiXfXiX8X@ Y.#XOX'._.OXOXOXOXOXOXOXOXOXOXOXOXOXOXOXOXOX`.OXOXOXOX@X_.~._.^.oXoX^.^.`.&X1.0 kXfXiXsXaXkXkXkXkXkXkXkXkX",
"kXkXkXkXkXkXkXkXqXkXU s ;X X/.+XOX/.`.`.`.OX+X_.OXOX/.OX`.`.`._.`.]._.@X@X/.|.*X-X=X-X*X>X;X;X#XXX: H.fXiXiXkXkXkXkXkXkXkXkXkXkX",
"kXkXkXkXkXkXkXkXfXdXcX. 8.=X~._.`.`.OX`.@XOX!.`.'._.+X`.!.@X#X#X@X%X#X+X'.'.+XA.R ..O.o.X.O.W |.O.> kXsXiXkXkXiXkXkXkXkXkXkXkXkX",
"kXkXkXkXkXkXkXkXyXkXkXV.. P.*X~.+X`._.OXoX+X+X~.).+X`.`.;X!.@.@.1.>.>.>.1.>._.Q.A.D.D.7.7.6.0.O.. 2XfXuXkXdXkXfXkXkXkXkXkXkXkXkX",
"kXkXkXkXkXkXkXkXkXfXyXkXB.< &X`.^.`.`.OX_.^.OX`.OXOX^.#XY.2.2.,.,.} &.*.&.} i.6.+.5.U.;X=X-XQ.% 2XkXuXkXyXkXaXfXkXkXkXkXkXkXkXkX",
"kXkXkXkXkXkXkXkXkXkXiXiXfXZ.u .X#X`.`._.`.+XOXOXOXOXoX=X>.[ W.d.u.t.t.r.e.r.%.1 . ;  .XX+XT.0 1XfXtXfXiXkXkXkXkXkXkXkXkXkXkXkXkX",
"kXkXkXkXkXkXkXkXfXkXkXiXqXkXC., T.&XOX`.OX`.OX/.`.+XOX+XY.i.<.,.*.&.&.} e.u.w.a , ; h 6X5.> <XsXuXiXqXfXkXkXkXkXkXkXkXkXkXkXkXkX",
"kXkXkXkXkXkXkXkXfXkXkXyXfXuXyXV.. S.&X#XOX^.+XOX`.~.`.`.#XQ.@.>.1.>.1.1.[ { t.| g 1 h +.X <XiXuXkXfXfXkXfXfXfXdXkXkXkXkXkXkXkXkX",
"kXkXkXkXkXkXkXkXkXiXiXkXkXfXiXsXV.X u Y.+X+X^./.`.+X`.OXOX@X+X#X+X@X'.,Xn . =.r.r.*.k - 2XiXqXdXdXfXkXdXkXiXfXkXkXkXkXkXkXkXkXkX",
"kXkXkXkXkXkXkXkXkXkXkXkXkXkXkXkXkX9X~ = h U.+X[.@X).oXoX/.W._.^.oX%X!.q.1 # g *.r.*.9.R.0XsXiXdXkXkXkXkXkXkXkXkXkXkXkXkXkXkXkXkX",
"kXkXkXkXkXkXkXkXkXkXkXkXkXkXkXkXtXsXrX4X& z K #.a._.~.&XOX>X=X:X+X(.Y.  r p o g ;.;.-.g 8.iXwXfXkXkXkXkXkXkXkXkXkXkXkXkXkXkXkXkX",
"kXkXkXkXkXkXkXkXkXkXkXkXkXkXkXkXdXfXwXR.b b.j.Z v n U W $.+.+.+.Q - # t @ . j.) } ,.w.' P.iXeXfXkXkXkXkXkXkXkXkXkXkXkXkXkXkXkXkX",
"kXkXkXkXkXkXkXkXkXkXkXkXkXkXkXkXtXrXkXJ v m.v.n.m.v.g.g.Z f.h.f.v X X r 3 O k./ ] <.w.' P.kXdXkXkXkXkXkXkXkXkXkXkXkXkXkXkXkXkXkX",
"kXkXkXkXkXkXkXkXkXkXkXkXkXkXkXkXaXcXdX/ v k.z.k.v.m.b.b.n.v.V b X i t   S v.j.^ [ =.-.' D.kXqXiXkXkXkXkXkXkXkXkXkXkXkXkXkXkXkXkX",
"kXkXkXkXkXkXkXkXkXkXkXkXkXkXkXkXuXiXiX! x g.k.c.j.x.b.v.k.c m 7 , @ $ A k.k.f.Y ] 2.w.' D.kXiXiXkXkXkXkXkXkXkXkXkXkXkXkXkXkXkXkX",
"kXkXkXkXkXkXkXkXkXkXkXkXkXkXkXkXkXfXkXK.4 S V D l.l.k.x.z M n.v.* . & S h.C V Y [ w.w.' T.fXiXfXkXkXkXkXkXkXkXkXkXkXkXkXkXkXkXkX",
"kXkXkXkXkXkXkXkXkXkXkXkXkXkXkXkXiXsXdXiXq 2 m C m C A D 8 b n.k.2 N M C A M 7 u ' y.s.a 8.fXiXkXkXkXkXkXkXkXkXkXkXkXkXkXkXkXkXkX",
"kXkXkXkXkXkXkXkXkXkXkXkXkXkXkXkXkXiXfXkX9XN.* 6 B N B V e : 7 3 l C V V l 2 = E.{.0.q.{.3XyXfXfXkXkXkXkXkXkXkXkXkXkXkXkXkXkXkXkX",
"kXkXkXkXkXkXkXkXkXkXkXkXkXkXkXkXkXkXaXfXkXsX&   X 4 x l i t o & x z 2 . X . w fXiX3.:.wXfXfXiXkXkXkXkXkXkXkXkXkXkXkXkXkXkXkXkXkX",
"kXkXkXkXkXkXkXkXkXkXkXkXkXkXkXkXkXkXkXkXkX9Xo O     +   # : o +     O O . . q iXuX5X5XiXsXiXiXfXkXkXkXkXkXkXkXkXkXkXkXkXkXkXkXkX",
"kXkXkXkXkXkXkXkXkXkXkXkXkXkXkXkXkXpXkXyXkXaXw   . X . X # . O O X .         ( fXfXiXfXpXfXuXfXkXkXkXkXkXkXkXkXkXkXkXkXkXkXkXkXkX",
"kXkXkXkXkXkXkXkXkXkXkXkXkXkXkXkXkXkXkXkXdXkXkXw %   o         o o o   X X ( fXsXkXiXkXkXkXfXfXdXkXkXkXkXkXkXkXkXkXkXkXkXkXkXkXkX",
"kXkXkXkXkXkXkXkXkXkXkXkXkXkXkXkXfXkXkXkXkXaXfXkXkXN.P ) ^ _ E E ) _ J J.iXfXyXyXaXfXiXkXaXkXfXdXkXkXkXkXkXkXkXkXkXkXkXkXkXkXkXkX",
"kXkXkXkXkXkXkXkXkXkXkXkXkXkXkXkXkXfXkXkXkXfXkXkXfXdXiXfXkXfXiXkXkXfXkXiXfXiXiXkXkXuXiXfXaXkXkXfXkXkXkXkXkXkXkXkXkXkXkXkXkXkXkXkX",
"kXkXkXkXkXkXkXkXkXkXkXkXkXkXkXkXkXkXfXfXkXiXkXkXiXaXfXsXdXkXuXdXuXiXsXkXsXfXfXkXdXfXiXfXkXfXuXiXkXkXkXkXkXkXkXkXkXkXkXkXkXkXkXkX",
"kXkXkXkXkXkXkXkXkXkXkXkXkXkXkXkXkXkXkXkXkXkXkXkXkXkXkXkXkXkXkXkXkXkXkXkXkXkXkXkXkXkXkXkXkXkXkXkXkXkXkXkXkXkXkXkXkXkXkXkXkXkXkXkX",
"kXkXkXkXkXkXkXkXkXkXkXkXkXkXkXkXkXkXkXkXkXkXkXkXkXkXkXkXkXkXkXkXkXkXkXkXkXkXkXkXkXkXkXkXkXkXkXkXkXkXkXkXkXkXkXkXkXkXkXkXkXkXkXkX",
"kXkXkXkXkXkXkXkXkXkXkXkXkXkXkXkXkXkXkXkXkXkXkXkXkXkXkXkXkXkXkXkXkXkXkXkXkXkXkXkXkXkXkXkXkXkXkXkXkXkXkXkXkXkXkXkXkXkXkXkXkXkXkXkX",
"kXkXkXkXkXkXkXkXkXkXkXkXkXkXkXkXkXkXkXkXkXkXkXkXkXkXkXkXkXkXkXkXkXkXkXkXkXkXkXkXkXkXkXkXkXkXkXkXkXkXkXkXkXkXkXkXkXkXkXkXkXkXkXkX",
"kXkXkXkXkXkXkXkXkXkXkXkXkXkXkXkXkXkXkXkXkXkXkXkXkXkXkXkXkXkXkXkXkXkXkXkXkXkXkXkXkXkXkXkXkXkXkXkXkXkXkXkXkXkXkXkXkXkXkXkXkXkXkXkX",
"kXkXkXkXkXkXkXkXkXkXkXkXkXkXkXkXkXkXkXkXkXkXkXkXkXkXkXkXkXkXkXkXkXkXkXkXkXkXkXkXkXkXkXkXkXkXkXkXkXkXkXkXkXkXkXkXkXkXkXkXkXkXkXkX"
};
